<svg width="360" height="120" viewBox="0 0 360 120" fill="none" xmlns="http://www.w3.org/2000/svg">
<path d="M0 16C0 7.16344 7.16344 0 16 0H344C352.837 0 360 7.16344 360 16V104C360 112.837 352.837 120 344 120H16C7.16344 120 0 112.837 0 104V16Z" fill="black"/>
<path d="M1.406 26.738C1.406 24.154 2.00133 21.836 3.192 19.784C4.408 17.732 6.042 16.136 8.094 14.996C10.1713 13.8307 12.4387 13.248 14.896 13.248C17.708 13.248 20.2033 13.9447 22.382 15.338C24.586 16.706 26.182 18.6567 27.17 21.19H21.964C21.28 19.8727 20.33 18.8847 19.114 18.226C17.898 17.542 16.492 17.2 14.896 17.2C13.148 17.2 11.59 17.5927 10.222 18.378C8.854 19.1633 7.77733 20.278 6.992 21.722C6.232 23.166 5.852 24.838 5.852 26.738C5.852 28.638 6.232 30.3227 6.992 31.792C7.77733 33.236 8.854 34.3507 10.222 35.136C11.59 35.9213 13.148 36.314 14.896 36.314C17.252 36.314 19.1647 35.6553 20.634 34.338C22.1287 32.9953 23.028 31.184 23.332 28.904H13.414V25.522H27.968V28.904C27.6893 30.956 26.9547 32.8433 25.764 34.566C24.5987 36.2887 23.066 37.6693 21.166 38.708C19.2913 39.7213 17.2013 40.228 14.896 40.228C12.4133 40.228 10.146 39.658 8.094 38.518C6.042 37.3527 4.408 35.744 3.192 33.692C2.00133 31.64 1.406 29.322 1.406 26.738ZM40.5626 40.342C38.5866 40.342 36.8006 39.8987 35.2046 39.012C33.6086 38.1 32.3546 36.8333 31.4426 35.212C30.5306 33.5653 30.0746 31.6653 30.0746 29.512C30.0746 27.384 30.5433 25.4967 31.4806 23.85C32.418 22.2033 33.6973 20.9367 35.3186 20.05C36.94 19.1633 38.7513 18.72 40.7526 18.72C42.754 18.72 44.5653 19.1633 46.1866 20.05C47.808 20.9367 49.0873 22.2033 50.0246 23.85C50.962 25.4967 51.4306 27.384 51.4306 29.512C51.4306 31.64 50.9493 33.5273 49.9866 35.174C49.024 36.8207 47.7066 38.1 46.0346 39.012C44.388 39.8987 42.564 40.342 40.5626 40.342ZM40.5626 36.694C41.6773 36.694 42.716 36.4153 43.6786 35.858C44.6666 35.3007 45.4646 34.49 46.0726 33.426C46.6806 32.3367 46.9846 31.032 46.9846 29.512C46.9846 27.992 46.6933 26.7 46.1106 25.636C45.528 24.5467 44.7553 23.736 43.7926 23.204C42.83 22.6467 41.7913 22.368 40.6766 22.368C39.562 22.368 38.536 22.6467 37.5986 23.204C36.6613 23.736 35.9013 24.5467 35.3186 25.636C34.7613 26.7 34.4826 27.992 34.4826 29.512C34.4826 31.032 34.7486 32.3367 35.2806 33.426C35.838 34.5153 36.5726 35.3387 37.4846 35.896C38.422 36.428 39.448 36.694 40.5626 36.694ZM64.035 40.342C62.059 40.342 60.273 39.8987 58.677 39.012C57.081 38.1 55.827 36.8333 54.915 35.212C54.003 33.5653 53.547 31.6653 53.547 29.512C53.547 27.384 54.0157 25.4967 54.953 23.85C55.8904 22.2033 57.1697 20.9367 58.791 20.05C60.4124 19.1633 62.2237 18.72 64.225 18.72C66.2264 18.72 68.0377 19.1633 69.659 20.05C71.2804 20.9367 72.5597 22.2033 73.497 23.85C74.4344 25.4967 74.903 27.384 74.903 29.512C74.903 31.64 74.4217 33.5273 73.459 35.174C72.4964 36.8207 71.179 38.1 69.507 39.012C67.8604 39.8987 66.0364 40.342 64.035 40.342ZM64.035 36.694C65.1497 36.694 66.1884 36.4153 67.151 35.858C68.139 35.3007 68.937 34.49 69.545 33.426C70.153 32.3367 70.457 31.032 70.457 29.512C70.457 27.992 70.1657 26.7 69.583 25.636C69.0004 24.5467 68.2277 23.736 67.265 23.204C66.3024 22.6467 65.2637 22.368 64.149 22.368C63.0344 22.368 62.0084 22.6467 61.071 23.204C60.1337 23.736 59.3737 24.5467 58.791 25.636C58.2337 26.7 57.955 27.992 57.955 29.512C57.955 31.032 58.221 32.3367 58.753 33.426C59.3104 34.5153 60.045 35.3387 60.957 35.896C61.8944 36.428 62.9204 36.694 64.035 36.694ZM86.8615 18.72C88.4828 18.72 89.9141 19.0493 91.1555 19.708C92.4221 20.3413 93.4101 21.1393 94.1195 22.102V19.062H98.4895V40.342C98.4895 42.2673 98.0841 43.9773 97.2735 45.472C96.4628 46.992 95.2848 48.1827 93.7395 49.044C92.2195 49.9053 90.3955 50.336 88.2675 50.336C85.4301 50.336 83.0741 49.6647 81.1995 48.322C79.3248 47.0047 78.2608 45.206 78.0075 42.926H82.3015C82.6308 44.0153 83.3275 44.8893 84.3915 45.548C85.4808 46.232 86.7728 46.574 88.2675 46.574C90.0155 46.574 91.4215 46.042 92.4855 44.978C93.5748 43.914 94.1195 42.3687 94.1195 40.342V36.846C93.3848 37.834 92.3841 38.67 91.1175 39.354C89.8761 40.0127 88.4575 40.342 86.8615 40.342C85.0375 40.342 83.3655 39.886 81.8455 38.974C80.3508 38.0367 79.1601 36.7447 78.2735 35.098C77.4121 33.426 76.9815 31.5387 76.9815 29.436C76.9815 27.3333 77.4121 25.4713 78.2735 23.85C79.1601 22.2287 80.3508 20.9747 81.8455 20.088C83.3655 19.176 85.0375 18.72 86.8615 18.72ZM94.1195 29.512C94.1195 28.068 93.8155 26.814 93.2075 25.75C92.6248 24.686 91.8521 23.8753 90.8895 23.318C89.9268 22.7607 88.8881 22.482 87.7735 22.482C86.6588 22.482 85.6201 22.7607 84.6575 23.318C83.6948 23.85 82.9095 24.648 82.3015 25.712C81.7188 26.7507 81.4275 27.992 81.4275 29.436C81.4275 30.88 81.7188 32.1467 82.3015 33.236C82.9095 34.3253 83.6948 35.1613 84.6575 35.744C85.6455 36.3013 86.6841 36.58 87.7735 36.58C88.8881 36.58 89.9268 36.3013 90.8895 35.744C91.8521 35.1867 92.6248 34.376 93.2075 33.312C93.8155 32.2227 94.1195 30.956 94.1195 29.512ZM107.751 11.88V40H103.419V11.88H107.751ZM131.869 28.942C131.869 29.6767 131.818 30.3607 131.717 30.994H115.681C115.808 32.742 116.428 34.1353 117.543 35.174C118.658 36.1873 120.038 36.694 121.685 36.694C124.016 36.694 125.662 35.7187 126.625 33.768H131.299C130.666 35.6933 129.513 37.2767 127.841 38.518C126.194 39.734 124.142 40.342 121.685 40.342C119.684 40.342 117.885 39.8987 116.289 39.012C114.718 38.1 113.477 36.8333 112.565 35.212C111.678 33.5653 111.235 31.6653 111.235 29.512C111.235 27.3587 111.666 25.4713 112.527 23.85C113.414 22.2033 114.642 20.9367 116.213 20.05C117.809 19.1633 119.633 18.72 121.685 18.72C123.661 18.72 125.422 19.1507 126.967 20.012C128.512 20.8733 129.716 22.0767 130.577 23.622C131.438 25.1673 131.869 26.9407 131.869 28.942ZM127.347 27.878C127.322 26.1807 126.752 24.838 125.637 23.85C124.548 22.862 123.167 22.368 121.495 22.368C119.975 22.368 118.67 22.862 117.581 23.85C116.517 24.838 115.896 26.1807 115.719 27.878H127.347ZM164.473 21.456C164.473 22.7987 164.156 24.0653 163.523 25.256C162.889 26.4467 161.876 27.422 160.483 28.182C159.089 28.9167 157.303 29.284 155.125 29.284H150.337V40H146.005V13.59H155.125C157.151 13.59 158.861 13.9447 160.255 14.654C161.673 15.338 162.725 16.2753 163.409 17.466C164.118 18.6567 164.473 19.9867 164.473 21.456ZM155.125 25.902C156.771 25.902 158 25.5093 158.811 24.724C159.621 23.9387 160.027 22.8493 160.027 21.456C160.027 20.0373 159.621 18.9353 158.811 18.15C158 17.3647 156.771 16.972 155.125 16.972H150.337V25.902H155.125ZM172.176 11.88V40H167.844V11.88H172.176ZM175.66 29.436C175.66 27.3333 176.09 25.4713 176.952 23.85C177.838 22.2287 179.029 20.9747 180.524 20.088C182.044 19.176 183.716 18.72 185.54 18.72C187.186 18.72 188.618 19.0493 189.834 19.708C191.075 20.3413 192.063 21.1393 192.798 22.102V19.062H197.168V40H192.798V36.884C192.063 37.872 191.062 38.6953 189.796 39.354C188.529 40.0127 187.085 40.342 185.464 40.342C183.665 40.342 182.018 39.886 180.524 38.974C179.029 38.0367 177.838 36.7447 176.952 35.098C176.09 33.426 175.66 31.5387 175.66 29.436ZM192.798 29.512C192.798 28.068 192.494 26.814 191.886 25.75C191.303 24.686 190.53 23.8753 189.568 23.318C188.605 22.7607 187.566 22.482 186.452 22.482C185.337 22.482 184.298 22.7607 183.336 23.318C182.373 23.85 181.588 24.648 180.98 25.712C180.397 26.7507 180.106 27.992 180.106 29.436C180.106 30.88 180.397 32.1467 180.98 33.236C181.588 34.3253 182.373 35.1613 183.336 35.744C184.324 36.3013 185.362 36.58 186.452 36.58C187.566 36.58 188.605 36.3013 189.568 35.744C190.53 35.1867 191.303 34.376 191.886 33.312C192.494 32.2227 192.798 30.956 192.798 29.512ZM204.454 19.062L210.344 35.022L216.462 19.062H220.946L208.102 49.842H203.618L207.874 39.658L199.628 19.062H204.454Z" transform="translate(112 48)" fill="white"/>
<path d="M0.86 14.02C0.86 12.66 1.16667 11.44 1.78 10.36C2.40667 9.26667 3.25333 8.42 4.32 7.82C5.38667 7.20667 6.56667 6.9 7.86 6.9C9.34 6.9 10.6467 7.26667 11.78 8C12.9267 8.73333 13.76 9.76667 14.28 11.1H12.1C11.7133 10.2867 11.1533 9.66 10.42 9.22C9.68667 8.76667 8.83333 8.54 7.86 8.54C6.88667 8.54 6.00667 8.76667 5.22 9.22C4.44667 9.66 3.83333 10.3 3.38 11.14C2.94 11.9667 2.72 12.9267 2.72 14.02C2.72 15.1133 2.94 16.0733 3.38 16.9C3.83333 17.7267 4.44667 18.3667 5.22 18.82C6.00667 19.26 6.88667 19.48 7.86 19.48C9.23333 19.48 10.36 19.0733 11.24 18.26C12.12 17.4333 12.6267 16.32 12.76 14.92H7.2V13.48H14.7V14.88C14.5933 16.0267 14.2333 17.08 13.62 18.04C13.0067 18.9867 12.2 19.74 11.2 20.3C10.2 20.8467 9.08667 21.12 7.86 21.12C6.56667 21.12 5.38667 20.82 4.32 20.22C3.25333 19.6067 2.40667 18.76 1.78 17.68C1.16667 16.6 0.86 15.38 0.86 14.02ZM19.9264 8.48V13.26H25.0064V14.66H19.9264V19.56H25.6064V21H18.1064V7.04H25.6064V8.48H19.9264ZM37.9403 7.06V8.48H34.1403V21H32.3203V8.48H28.5003V7.06H37.9403ZM49.9577 7.06V21H48.1377V7.06H49.9577ZM62.6395 7.06V8.48H58.8395V21H57.0195V8.48H53.1995V7.06H62.6395ZM79.1569 21.14C77.8635 21.14 76.6835 20.84 75.6169 20.24C74.5502 19.6267 73.7035 18.78 73.0769 17.7C72.4635 16.6067 72.1569 15.38 72.1569 14.02C72.1569 12.66 72.4635 11.44 73.0769 10.36C73.7035 9.26667 74.5502 8.42 75.6169 7.82C76.6835 7.20667 77.8635 6.9 79.1569 6.9C80.4635 6.9 81.6502 7.20667 82.7169 7.82C83.7835 8.42 84.6235 9.26 85.2369 10.34C85.8502 11.42 86.1569 12.6467 86.1569 14.02C86.1569 15.3933 85.8502 16.62 85.2369 17.7C84.6235 18.78 83.7835 19.6267 82.7169 20.24C81.6502 20.84 80.4635 21.14 79.1569 21.14ZM79.1569 19.5C80.1302 19.5 81.0035 19.2733 81.7769 18.82C82.5635 18.3667 83.1769 17.7267 83.6169 16.9C84.0702 16.0733 84.2969 15.1133 84.2969 14.02C84.2969 12.9267 84.0702 11.9667 83.6169 11.14C83.1769 10.3 82.5635 9.66 81.7769 9.22C81.0035 8.76667 80.1302 8.54 79.1569 8.54C78.1835 8.54 77.3035 8.76667 76.5169 9.22C75.7435 9.66 75.1302 10.3 74.6769 11.14C74.2369 11.9667 74.0169 12.9267 74.0169 14.02C74.0169 15.1133 74.2369 16.0733 74.6769 16.9C75.1302 17.7267 75.7435 18.3667 76.5169 18.82C77.3035 19.2733 78.1835 19.5 79.1569 19.5ZM100.52 21H98.6995L91.3795 9.9V21H89.5595V7.04H91.3795L98.6995 18.12V7.04H100.52V21Z" transform="translate(112 21)" fill="white"/>
<mask id="mask0" mask-type="alpha" maskUnits="userSpaceOnUse" x="26" y="25" width="59" height="69">
<path d="M0 6.88207C0 3.81316 3.31329 1.88741 5.97989 3.40643L56.1728 31.9987C58.8046 33.498 58.88 37.2648 56.3102 38.868L6.11731 70.1834C3.45301 71.8457 0 69.9301 0 66.7897V6.88207Z" transform="translate(26 23)" fill="#C4C4C4"/>
</mask>
<g mask="url(#mask0)">
<path d="M0 6.88207C0 3.81316 3.31329 1.88741 5.97989 3.40643L56.1728 31.9987C58.8046 33.498 58.88 37.2648 56.3102 38.868L6.11731 70.1834C3.45301 71.8457 0 69.9301 0 66.7897V6.88207Z" transform="translate(26 23)" fill="#00F076"/>
<path d="M66 61.5L5 0L0 73.5L13.5 84L66 61.5Z" transform="translate(16 20.5)" fill="#00C9FF"/>
<path d="M0 56.5L58 0L81 9.5L39.5 58.5L0 56.5Z" transform="translate(17.5 43)" fill="#F53349"/>
<path fill-rule="evenodd" clip-rule="evenodd" d="M59.9229 34.3857L81 9.5L58 0L41.6318 15.9446L59.9229 34.3857ZM51.1807 44.7083L21.166 57.5717L39.5 58.5L51.1807 44.7083ZM5.95898 56.8018L2.47363 54.0905L0 56.5L5.95898 56.8018Z" transform="translate(17.5 43)" fill="#FFCC00"/>
</g>
</svg>
