<?xml version="1.0" encoding="UTF-8" standalone="no"?>
<!DOCTYPE svg PUBLIC "-//W3C//DTD SVG 1.1//EN" "http://www.w3.org/Graphics/SVG/1.1/DTD/svg11.dtd">
<svg xmlns="http://www.w3.org/2000/svg" version="1.1" viewBox="0.00 0.00 1024.00 1024.00">
<g stroke-width="2.00" fill="none" stroke-linecap="butt">
<path stroke="#561822" vector-effect="non-scaling-stroke" d="
  M 346.29 293.00
  Q 357.08 299.74 360.51 310.97
  Q 362.11 316.23 362.11 330.17
  Q 362.07 470.01 362.12 690.14
  Q 362.13 707.74 361.26 711.67
  Q 358.71 723.26 348.79 731.03
  Q 341.64 736.62 330.23 739.99"
/>
<path stroke="#4b1822" vector-effect="non-scaling-stroke" d="
  M 330.23 739.99
  Q 319.36 742.49 316.25 742.50
  Q 311.41 742.51 306.45 743.00
  A 2.32 2.30 -71.8 0 0 304.96 743.76
  L 296.18 753.53
  A 0.76 0.75 -69.0 0 0 296.74 754.79
  L 726.98 754.79
  A 0.57 0.57 0.0 0 0 727.40 753.84
  L 717.89 743.25
  A 1.02 1.00 -20.3 0 0 717.13 742.91
  Q 714.46 742.96 706.78 742.38
  Q 696.66 741.62 686.21 737.54
  Q 678.35 734.47 672.03 728.99"
/>
<path stroke="#561822" vector-effect="non-scaling-stroke" d="
  M 672.03 728.99
  Q 665.30 722.33 662.60 713.46
  Q 661.28 709.12 661.28 701.40
  Q 661.20 512.20 661.28 323.00
  Q 661.29 308.63 670.05 298.49"
/>
<path stroke="#4b1822" vector-effect="non-scaling-stroke" d="
  M 670.05 298.49
  Q 678.67 290.48 690.23 287.61
  Q 702.01 284.70 715.26 285.52
  A 1.17 1.16 -68.5 0 0 716.24 285.09
  L 726.63 272.39
  A 0.29 0.24 85.3 0 0 726.68 272.32
  Q 727.07 271.27 728.26 270.50
  A 0.83 0.83 0.0 0 0 727.80 268.97
  L 295.90 268.97
  A 0.43 0.43 0.0 0 0 295.55 269.66
  L 306.78 284.90
  A 1.06 1.04 -18.3 0 0 307.65 285.33
  Q 310.36 285.28 320.00 285.51
  Q 320.04 285.51 326.24 286.22
  Q 336.17 287.37 346.29 293.00"
/>
<path stroke="#7a0100" vector-effect="non-scaling-stroke" d="
  M 670.05 298.49
  C 662.09 296.72 659.90 287.07 658.40 280.33
  A 0.35 0.35 0.0 0 0 657.86 280.12
  L 614.59 310.00
  A 1.11 1.10 -17.7 0 0 614.12 310.90
  L 614.12 359.74
  A 0.11 0.11 0.0 0 1 613.91 359.77
  Q 612.62 356.07 612.61 351.63
  Q 612.56 326.46 612.69 310.81
  A 2.07 2.06 17.1 0 0 611.76 309.07
  L 560.95 275.61
  A 2.26 2.25 -41.0 0 0 558.72 275.46
  C 552.00 278.67 546.14 282.55 542.29 289.35"
/>
<path stroke="#4b1822" vector-effect="non-scaling-stroke" d="
  M 542.29 289.35
  C 529.04 284.79 518.63 285.21 501.76 285.47
  Q 490.40 285.64 478.65 290.36
  Q 462.82 296.73 458.48 313.09
  A 3.29 2.92 -41.5 0 0 458.39 313.83
  Q 458.39 315.84 457.70 317.78
  A 2.83 2.74 -36.5 0 0 457.55 318.68
  L 457.47 414.42"
/>
<path stroke="#7a0100" vector-effect="non-scaling-stroke" d="
  M 457.47 414.42
  Q 452.67 415.70 448.11 416.63
  C 440.16 418.25 436.51 412.20 435.37 405.36
  Q 433.88 396.34 433.91 384.89
  Q 434.00 338.40 433.59 295.00
  A 0.38 0.38 0.0 0 0 432.99 294.69
  L 410.51 310.22
  A 0.75 0.75 0.0 0 1 409.68 310.23
  L 356.58 275.25
  A 0.70 0.69 26.6 0 0 355.55 275.59
  Q 352.13 284.63 346.29 293.00"
/>
<path stroke="#7a0100" vector-effect="non-scaling-stroke" d="
  M 672.03 728.99
  C 665.39 731.13 661.80 735.89 658.06 741.58
  A 0.49 0.47 -56.1 0 1 657.40 741.72
  L 614.57 713.51
  A 1.05 1.05 0.0 0 1 614.09 712.63
  L 614.09 631.53
  A 0.20 0.20 0.0 0 0 613.69 631.48
  Q 612.74 634.89 612.75 638.40
  Q 612.77 647.77 612.62 702.99
  Q 612.60 708.17 612.84 712.72
  A 1.94 1.93 -19.3 0 1 612.02 714.41
  Q 583.06 734.75 563.83 747.80
  Q 562.50 748.70 559.37 748.42
  A 0.81 0.81 0.0 0 1 558.70 747.91
  L 552.19 731.23"
/>
<path stroke="#561822" vector-effect="non-scaling-stroke" d="
  M 552.19 731.23
  Q 560.90 724.64 564.18 714.61
  Q 565.66 710.08 565.62 703.72
  Q 565.51 688.03 565.54 672.17
  A 1.92 1.92 0.0 0 1 566.41 670.56
  Q 579.09 662.20 590.13 652.63
  C 592.06 650.96 593.94 648.78 596.29 646.80
  Q 601.97 642.02 613.18 628.66
  A 1.85 1.85 0.0 0 0 613.61 627.53
  L 614.24 608.82
  A 0.51 0.51 0.0 0 1 614.40 608.45
  Q 614.57 608.28 614.60 608.25
  A 1.14 1.10 67.1 0 0 614.85 607.60
  L 617.46 561.79
  A 2.09 2.04 70.9 0 1 618.12 560.39
  C 624.05 554.91 629.00 548.00 630.51 539.90
  Q 631.18 536.33 630.65 533.10
  Q 630.01 529.25 628.77 526.66
  A 1.24 1.22 53.3 0 1 628.96 525.30
  L 639.07 514.05
  A 0.79 0.79 0.0 0 0 638.54 512.74
  L 631.10 512.26
  A 2.42 2.41 2.4 0 1 628.84 509.81
  L 629.08 494.75
  A 1.46 1.45 17.3 0 0 628.43 493.52
  L 626.57 492.30
  A 1.04 1.02 -67.0 0 1 626.14 491.21
  Q 626.76 488.44 625.93 486.26
  A 1.15 1.11 35.8 0 1 625.86 485.87
  L 625.86 469.51
  A 1.75 1.62 54.1 0 1 625.91 469.10
  Q 626.69 466.01 626.32 462.06
  A 0.75 0.73 64.1 0 1 626.51 461.49
  L 626.76 461.21
  A 0.45 0.45 0.0 0 1 627.49 461.30
  Q 631.76 469.17 633.92 477.02
  A 5.55 5.22 -70.9 0 0 634.57 478.47
  Q 635.98 480.67 635.76 482.86
  A 0.92 0.91 -70.9 0 0 636.17 483.71
  L 636.68 484.04
  A 0.43 0.43 0.0 0 0 637.35 483.70
  L 637.99 464.47
  A 3.66 3.63 -30.4 0 1 638.40 462.92
  Q 642.99 454.08 645.14 443.93
  Q 646.54 437.33 645.75 430.01
  Q 644.88 421.91 643.57 416.19
  C 636.70 386.09 619.05 361.57 592.34 346.22
  Q 586.90 343.09 583.69 341.56
  Q 574.83 337.31 566.15 334.84
  A 0.77 0.76 7.8 0 1 565.60 334.12
  Q 565.53 328.14 565.56 323.25
  Q 565.60 315.73 564.70 312.42
  C 561.60 300.94 553.42 293.24 542.29 289.35"
/>
<path stroke="#561822" vector-effect="non-scaling-stroke" d="
  M 457.47 414.42
  Q 437.82 422.09 424.56 436.57
  Q 409.70 452.78 406.77 475.32
  Q 405.70 483.56 405.68 486.66
  A 0.89 0.88 -12.7 0 1 405.18 487.44
  L 392.65 493.23
  A 1.38 1.38 0.0 0 0 391.85 494.48
  L 391.85 510.29
  A 1.65 1.64 -3.8 0 1 390.42 511.92
  L 381.56 513.05
  A 0.40 0.39 65.4 0 0 381.32 513.71
  L 391.94 525.54
  A 1.12 1.12 0.0 0 1 392.13 526.75
  Q 390.52 530.45 390.01 534.29
  Q 389.56 537.72 390.72 542.11
  C 392.72 549.61 396.80 554.46 402.17 560.02
  A 2.55 2.52 10.9 0 1 402.65 560.72
  Q 403.75 563.10 403.66 564.57
  Q 403.21 571.86 404.39 577.50
  A 13.06 12.49 -52.2 0 1 404.66 580.12
  Q 404.67 587.73 404.93 590.00
  Q 405.93 598.75 405.46 601.30
  A 2.84 2.69 -46.6 0 0 405.46 602.29
  Q 406.52 608.27 406.47 612.74
  C 406.42 618.19 407.17 621.95 407.41 627.63
  A 2.98 2.96 24.4 0 0 408.08 629.39
  Q 422.32 646.78 440.56 660.68
  Q 443.21 662.70 446.12 665.04"
/>
<path stroke="#7a0100" vector-effect="non-scaling-stroke" d="
  M 446.12 665.04
  C 439.20 663.97 436.66 668.98 435.63 674.88
  Q 434.17 683.25 434.14 693.86
  Q 434.09 709.64 434.99 728.75
  A 0.36 0.36 0.0 0 1 434.43 729.07
  L 410.81 713.52
  A 1.30 1.30 0.0 0 0 409.33 713.55
  Q 393.89 724.58 370.46 740.71
  Q 362.44 746.24 360.81 746.87
  Q 354.79 749.20 349.60 748.28
  Q 340.01 746.57 330.23 739.99"
/>
<path stroke="#4b1822" vector-effect="non-scaling-stroke" d="
  M 552.19 731.23
  C 543.00 738.03 531.75 741.31 520.72 742.36
  Q 516.40 742.77 504.88 742.56
  C 501.63 742.51 499.17 741.91 495.45 741.32
  Q 487.23 740.01 479.01 736.04
  C 468.89 731.15 461.89 723.83 458.74 713.42
  Q 457.37 708.88 457.47 699.46
  Q 457.60 687.11 457.52 673.79
  A 2.02 2.00 17.1 0 0 456.62 672.12
  L 446.12 665.04"
/>
<path stroke="#8c7a4b" vector-effect="non-scaling-stroke" d="
  M 524.47 367.68
  Q 536.33 367.30 548.82 370.67
  Q 551.32 371.34 552.00 371.86
  A 0.21 0.20 61.8 0 1 551.89 372.23
  Q 542.70 372.82 533.92 376.19
  C 528.00 378.46 521.57 383.24 524.52 390.33
  A 3.23 3.09 12.3 0 0 525.16 391.28
  Q 528.92 395.12 534.72 396.03
  Q 543.69 397.43 552.78 396.58
  Q 556.02 396.28 557.32 395.78
  C 562.54 393.79 567.71 393.65 572.81 395.85
  C 587.81 402.33 598.42 417.39 604.75 432.15
  A 0.34 0.34 0.0 0 1 604.19 432.51
  Q 597.47 424.97 588.09 421.14
  A 0.38 0.38 0.0 0 0 587.65 421.74
  Q 593.41 428.37 597.58 436.71
  C 599.65 440.85 602.45 444.65 604.62 448.06
  Q 609.03 454.98 611.69 464.29
  Q 612.90 468.54 613.97 474.50
  Q 614.63 478.19 614.83 486.56
  A 1.57 1.56 -86.3 0 0 616.15 488.07
  L 616.79 488.18
  A 0.68 0.68 0.0 0 0 617.54 487.30
  Q 613.69 475.31 613.43 461.72
  Q 613.35 457.46 614.07 453.79
  A 0.28 0.28 0.0 0 1 614.61 453.79
  L 619.05 477.04
  A 0.45 0.45 0.0 0 0 619.88 477.17
  Q 620.05 476.86 620.10 476.02
  Q 620.68 465.13 620.68 459.26
  C 620.68 452.53 620.34 444.72 618.49 437.89
  C 617.50 434.28 616.89 431.39 615.20 427.90
  C 609.91 416.98 602.03 408.24 593.03 400.21
  Q 582.73 391.03 572.65 383.49
  Q 572.45 383.34 572.11 382.91
  A 0.33 0.33 0.0 0 1 572.48 382.39
  Q 601.59 392.29 622.21 415.05
  A 0.39 0.39 0.0 0 0 622.83 414.59
  L 611.69 395.29
  A 0.04 0.03 -87.9 0 1 611.74 395.24
  Q 627.95 408.43 635.29 427.67
  Q 636.56 431.02 637.97 438.39
  A 0.52 0.51 -8.1 0 0 638.52 438.80
  L 638.54 438.80
  A 0.55 0.54 87.8 0 0 639.04 438.25
  Q 639.01 428.00 638.05 421.86
  Q 633.84 394.64 615.26 373.87
  A 5.45 5.32 -9.6 0 0 613.21 372.45
  Q 597.72 366.39 581.76 360.49
  Q 579.46 359.64 576.81 359.10
  A 0.26 0.26 0.0 0 1 576.84 358.58
  Q 588.66 357.57 599.73 361.60
  A 0.40 0.40 0.0 0 0 600.14 360.94
  Q 589.94 351.34 577.11 345.40
  Q 560.00 337.47 541.26 335.87
  C 535.03 335.34 527.07 335.64 521.18 338.72"
/>
<path stroke="#837146" vector-effect="non-scaling-stroke" d="
  M 521.18 338.72
  L 519.04 339.47"
/>
<path stroke="#715b33" vector-effect="non-scaling-stroke" d="
  M 519.04 339.47
  Q 518.90 339.45 518.79 339.40
  A 0.31 0.31 0.0 0 1 518.75 338.84
  L 523.34 336.19
  A 0.27 0.27 0.0 0 0 523.24 335.69
  C 520.70 335.34 518.92 336.92 516.35 336.64
  A 0.84 0.84 0.0 0 0 515.66 336.87
  C 514.87 337.64 512.76 337.37 511.48 338.02
  A 0.61 0.40 -56.8 0 1 511.32 338.09
  Q 493.19 342.85 480.24 355.98
  Q 472.60 363.71 469.47 372.43
  Q 467.00 379.29 466.71 381.98
  Q 466.37 385.26 466.44 391.86
  C 466.48 395.77 467.29 399.15 468.63 402.16
  A 0.35 0.34 -55.9 0 0 469.29 402.03
  Q 469.77 392.57 472.58 383.02
  Q 475.06 374.58 480.09 367.68
  A 0.45 0.45 0.0 0 1 480.89 368.08
  Q 479.07 373.89 477.85 381.61
  Q 477.41 384.38 477.42 387.42
  C 477.44 392.36 476.98 396.36 480.74 398.93
  A 1.28 1.28 0.0 0 0 482.61 398.45
  C 489.86 384.03 500.41 372.88 516.52 368.95
  C 518.84 368.39 521.84 368.15 524.47 367.68"
/>
<path stroke="#cd9d36" vector-effect="non-scaling-stroke" d="
  M 519.04 339.47
  L 519.38 348.13
  A 0.75 0.73 -12.6 0 1 518.92 348.84
  Q 501.54 356.14 490.03 372.25
  Q 488.67 374.16 489.39 375.28"
/>
<path stroke="#715b33" vector-effect="non-scaling-stroke" d="
  M 489.39 375.28
  L 488.77 376.88
  A 0.23 0.23 0.0 0 0 489.16 377.11
  Q 494.05 371.45 499.22 366.73
  Q 501.96 364.22 504.83 362.42"
/>
<path stroke="#cd9d36" vector-effect="non-scaling-stroke" d="
  M 504.83 362.42
  Q 509.68 361.62 513.85 358.61
  A 0.45 0.45 0.0 0 1 514.56 359.04
  L 513.20 367.64
  A 0.23 0.22 -0.2 0 0 513.46 367.89
  L 522.96 366.33"
/>
<path stroke="#d6a73a" vector-effect="non-scaling-stroke" d="
  M 522.96 366.33
  L 524.47 367.68"
/>
<path stroke="#e8bd4e" vector-effect="non-scaling-stroke" d="
  M 522.96 366.33
  L 540.27 366.65
  A 0.78 0.78 0.0 0 0 540.98 366.22
  Q 544.41 359.29 546.48 351.84
  A 0.28 0.28 0.0 0 0 546.22 351.48
  L 534.10 351.29
  A 0.14 0.14 0.0 0 1 534.06 351.02
  Q 534.31 350.94 534.35 350.88
  A 0.27 0.25 -65.6 0 0 534.20 350.45
  L 533.54 350.35"
/>
<path stroke="#8c7a4b" vector-effect="non-scaling-stroke" d="
  M 533.54 350.35
  Q 543.50 348.49 554.46 349.65
  A 0.35 0.35 0.0 0 0 554.64 348.98
  Q 553.52 348.46 551.78 348.20
  Q 541.83 346.70 531.83 347.56"
/>
<path stroke="#e8bd4e" vector-effect="non-scaling-stroke" d="
  M 531.83 347.56
  Q 528.11 347.19 533.53 345.95
  Q 537.65 345.01 541.49 344.92
  A 0.26 0.24 -79.7 0 0 541.72 344.75
  L 543.84 338.31
  A 0.13 0.13 0.0 0 0 543.73 338.14
  Q 534.65 337.34 529.40 338.01
  Q 523.56 338.75 521.18 338.72"
/>
<path stroke="#837146" vector-effect="non-scaling-stroke" d="
  M 533.54 350.35
  Q 530.50 350.88 529.75 351.06
  Q 516.43 354.26 504.83 362.42"
/>
<path stroke="#837146" vector-effect="non-scaling-stroke" d="
  M 531.83 347.56
  C 513.36 349.94 499.79 360.28 489.39 375.28"
/>
<path stroke="#837146" vector-effect="non-scaling-stroke" d="
  M 436.22 435.23
  Q 414.69 454.44 413.73 483.93
  A 0.47 0.47 0.0 0 0 414.41 484.37
  L 422.79 480.28"
/>
<path stroke="#8c7a4b" vector-effect="non-scaling-stroke" d="
  M 422.79 480.28
  Q 464.82 465.17 509.77 459.02
  A 1.34 1.34 0.0 0 0 510.93 457.69
  L 510.93 404.72
  A 0.82 0.81 -0.7 0 1 511.73 403.91
  Q 513.80 403.86 515.49 404.09
  C 526.08 405.52 536.77 408.26 546.07 413.41
  A 0.83 0.78 5.9 0 1 546.44 413.84
  Q 546.61 414.36 546.09 414.93
  A 1.17 1.12 71.4 0 0 545.80 415.55
  C 545.43 418.10 544.75 420.68 544.73 422.88
  Q 544.70 429.96 545.86 437.59
  A 0.19 0.19 0.0 0 0 546.24 437.60
  C 546.69 435.41 546.53 433.27 546.99 430.73
  Q 548.75 421.12 553.49 412.46
  A 0.60 0.59 30.4 0 0 553.28 411.67
  Q 539.35 403.18 522.68 401.55
  Q 519.45 401.24 517.34 401.31
  C 512.66 401.48 508.28 400.91 504.00 401.31
  Q 484.38 403.13 467.73 412.75
  A 0.88 0.87 56.4 0 0 467.48 414.03
  Q 474.79 423.71 474.57 435.48
  Q 474.53 438.19 473.30 440.09
  A 0.29 0.29 0.0 0 1 472.76 439.95
  C 472.63 437.65 472.75 435.28 471.95 432.89
  Q 469.41 425.37 464.51 419.45
  A 1.03 1.01 -29.9 0 0 463.36 419.15
  Q 448.34 424.79 436.22 435.23"
/>
<path stroke="#e8bd4e" vector-effect="non-scaling-stroke" d="
  M 422.79 480.28
  Q 437.96 472.41 454.98 468.37
  A 1.49 1.49 0.0 0 0 455.60 468.04
  Q 462.24 461.87 464.25 453.56
  C 466.55 443.97 465.88 433.80 465.03 423.25
  A 0.79 0.79 0.0 0 0 464.46 422.55
  Q 460.99 421.58 457.15 423.51
  Q 448.70 427.74 440.92 433.10
  Q 439.71 433.92 436.22 435.23"
/>
<path stroke="#837146" vector-effect="non-scaling-stroke" d="
  M 597.72 462.63
  L 601.58 475.15
  A 0.76 0.75 86.7 0 1 600.72 476.12
  L 560.28 468.33
  A 0.22 0.22 0.0 0 0 560.03 468.62
  L 560.13 468.90
  A 0.19 0.19 0.0 0 0 560.24 469.01
  L 606.74 484.32
  A 0.42 0.42 0.0 0 0 607.29 483.93
  Q 607.66 470.82 602.57 459.12"
/>
<path stroke="#8c7a4b" vector-effect="non-scaling-stroke" d="
  M 602.57 459.12
  Q 598.14 449.15 592.07 442.42
  Q 578.78 427.68 557.73 418.96
  A 0.22 0.21 30.5 0 0 557.48 419.02
  L 555.15 422.01
  A 0.15 0.15 0.0 0 0 555.21 422.25
  Q 584.87 434.69 597.72 462.63"
/>
<path stroke="#e8bd4e" vector-effect="non-scaling-stroke" d="
  M 602.57 459.12
  L 602.24 459.98
  A 0.45 0.45 0.0 0 1 601.41 460.00
  C 596.41 448.21 588.70 439.80 578.06 432.08
  A 0.43 0.43 0.0 0 0 577.38 432.38
  L 577.36 432.50
  A 1.31 1.30 -66.5 0 0 577.80 433.64
  Q 590.73 444.94 598.25 460.18
  Q 600.25 464.23 597.72 462.63"
/>
<path stroke="#837146" vector-effect="non-scaling-stroke" d="
  M 462.64 474.80
  Q 431.37 482.84 400.84 496.27
  A 2.13 2.12 -12.0 0 0 399.57 498.21
  L 399.57 512.56
  A 0.66 0.66 0.0 0 0 400.25 513.22
  Q 417.60 512.72 434.62 516.16
  Q 439.69 517.18 444.06 519.22
  A 0.07 0.07 0.0 0 1 444.02 519.35
  Q 437.72 518.46 434.42 517.91
  Q 414.36 514.53 394.87 517.33
  A 0.39 0.38 64.9 0 0 394.64 517.97
  L 401.90 526.05
  A 1.92 1.91 72.2 0 0 403.12 526.68
  Q 431.01 529.65 457.51 538.70"
/>
<path stroke="#8c7a4b" vector-effect="non-scaling-stroke" d="
  M 457.51 538.70
  Q 484.71 547.63 510.47 560.62
  A 0.36 0.36 0.0 0 0 510.99 560.30
  L 510.99 541.60
  A 0.33 0.31 -13.3 0 1 511.18 541.31
  L 541.26 527.40
  A 0.02 0.02 0.0 0 0 541.27 527.37
  L 541.20 527.11
  A 0.18 0.17 -13.6 0 0 540.99 526.99
  L 511.62 534.99
  A 0.55 0.55 0.0 0 1 510.93 534.46
  L 510.93 464.86
  A 0.37 0.37 0.0 0 0 510.50 464.50
  Q 486.14 468.58 462.64 474.80"
/>
<path stroke="#e8bd4e" vector-effect="non-scaling-stroke" d="
  M 457.51 538.70
  Q 464.39 530.63 465.67 520.10
  Q 468.45 497.20 462.64 474.80"
/>
<path stroke="#8c7a4b" vector-effect="non-scaling-stroke" d="
  M 519.54 466.79
  Q 553.79 476.30 587.20 488.35"
/>
<path stroke="#837146" vector-effect="non-scaling-stroke" d="
  M 587.20 488.35
  Q 601.00 493.41 614.30 499.81
  A 1.66 1.64 15.1 0 1 615.23 501.41
  L 614.57 511.64
  A 0.88 0.88 0.0 0 0 615.45 512.58
  L 620.92 512.58
  A 0.84 0.84 0.0 0 0 621.76 511.74
  L 621.76 497.90
  A 1.17 1.17 0.0 0 0 621.01 496.81
  L 589.82 484.64"
/>
<path stroke="#8c7a4b" vector-effect="non-scaling-stroke" d="
  M 589.82 484.64
  Q 555.78 472.18 520.04 466.00"
/>
<path stroke="#715b33" vector-effect="non-scaling-stroke" d="
  M 520.04 466.00
  Q 518.72 465.46 517.09 465.63
  A 0.74 0.73 -31.9 0 1 516.61 465.52
  L 515.42 464.80
  A 0.13 0.13 0.0 0 0 515.27 464.81
  L 515.11 464.95
  A 0.27 0.26 36.6 0 0 515.17 465.32
  Q 517.13 466.72 519.54 466.79"
/>
<path stroke="#d6a73a" vector-effect="non-scaling-stroke" d="
  M 520.04 466.00
  Q 519.59 466.25 519.54 466.79"
/>
<path stroke="#e8bd4e" vector-effect="non-scaling-stroke" d="
  M 589.82 484.64
  Q 589.11 486.92 587.20 488.35"
/>
<path stroke="#8c7a4b" vector-effect="non-scaling-stroke" d="
  M 596.17 525.14
  Q 551.27 532.05 514.28 558.25
  Q 514.04 558.41 513.94 558.62
  A 0.30 0.30 0.0 0 0 514.35 559.02
  Q 526.62 552.23 540.06 546.83
  C 559.10 539.17 578.62 532.55 598.74 528.67"
/>
<path stroke="#837146" vector-effect="non-scaling-stroke" d="
  M 598.74 528.67
  L 616.95 526.63
  A 3.87 3.84 17.4 0 0 619.37 525.38
  L 625.65 518.40
  A 0.56 0.56 0.0 0 0 625.20 517.47
  Q 622.37 517.63 615.50 516.88
  Q 611.02 516.39 600.19 516.26
  Q 593.21 516.17 587.36 516.96
  Q 578.18 518.20 574.70 519.22
  Q 574.06 519.41 573.61 519.69
  A 0.28 0.28 0.0 0 0 573.76 520.20
  Q 586.81 520.06 603.00 520.68
  Q 608.56 520.89 613.00 521.88
  A 0.55 0.55 0.0 0 1 613.09 522.93
  Q 612.13 523.32 610.82 523.37
  Q 603.47 523.67 596.17 525.14"
/>
<path stroke="#e8bd4e" vector-effect="non-scaling-stroke" d="
  M 598.74 528.67
  Q 599.60 527.78 599.68 526.98
  A 0.89 0.89 0.0 0 0 599.26 526.14
  Q 598.10 525.43 596.17 525.14"
/>
<path stroke="#837146" vector-effect="non-scaling-stroke" d="
  M 620.42 547.25
  C 623.52 542.93 623.99 538.45 623.60 533.07
  A 0.48 0.48 0.0 0 0 623.08 532.62
  L 620.43 532.80
  A 0.44 0.44 0.0 0 0 620.03 533.30
  Q 620.66 537.23 620.37 540.39
  Q 619.75 547.04 619.81 547.17
  A 0.35 0.35 0.0 0 0 620.42 547.25"
/>
<path stroke="#715b33" vector-effect="non-scaling-stroke" d="
  M 403.72 544.09
  L 406.90 534.44
  A 0.47 0.46 13.4 0 0 406.52 533.83
  L 403.58 533.44"
/>
<path stroke="#8c7a4b" vector-effect="non-scaling-stroke" d="
  M 403.58 533.44
  L 398.93 533.19
  A 0.60 0.59 -83.5 0 0 398.31 533.69
  Q 397.19 540.77 401.04 546.99
  A 0.96 0.96 0.0 0 0 402.76 546.80
  L 403.72 544.09"
/>
<path stroke="#d6a73a" vector-effect="non-scaling-stroke" d="
  M 403.58 533.44
  L 403.72 544.09"
/>
<path stroke="#8c7a4b" vector-effect="non-scaling-stroke" d="
  M 454.06 661.27
  Q 475.98 676.91 501.10 686.58
  Q 505.39 688.23 510.33 690.12"
/>
<path stroke="#837146" vector-effect="non-scaling-stroke" d="
  M 510.33 690.12
  L 520.69 686.25"
/>
<path stroke="#8c7a4b" vector-effect="non-scaling-stroke" d="
  M 520.69 686.25
  Q 558.60 670.86 589.07 643.75"
/>
<path stroke="#837146" vector-effect="non-scaling-stroke" d="
  M 589.07 643.75
  Q 597.59 636.17 605.64 626.28
  A 3.02 3.00 -23.9 0 0 606.31 624.57
  L 611.16 550.00
  A 3.16 3.04 37.6 0 0 610.97 548.73
  L 605.93 535.62
  A 1.56 1.55 -18.0 0 0 604.07 534.68
  L 599.21 536.00
  A 0.91 0.89 -11.3 0 0 598.55 536.97
  Q 599.00 540.63 599.17 544.25
  Q 599.28 546.67 597.88 547.63
  Q 587.22 554.84 573.93 562.12"
/>
<path stroke="#8c7a4b" vector-effect="non-scaling-stroke" d="
  M 573.93 562.12
  Q 550.51 574.71 525.26 582.69"
/>
<path stroke="#837146" vector-effect="non-scaling-stroke" d="
  M 525.26 582.69
  Q 521.54 583.57 515.44 585.44
  Q 513.36 586.07 510.44 586.32"
/>
<path stroke="#8c7a4b" vector-effect="non-scaling-stroke" d="
  M 510.44 586.32
  Q 477.99 578.26 447.54 563.09"
/>
<path stroke="#837146" vector-effect="non-scaling-stroke" d="
  M 447.54 563.09
  Q 436.48 556.67 425.64 549.36
  Q 424.37 548.51 422.61 546.83
  A 0.85 0.84 20.3 0 1 422.35 546.27
  L 421.82 536.21
  A 0.71 0.71 0.0 0 0 421.24 535.55
  L 416.11 534.56
  A 0.87 0.86 -75.4 0 0 415.13 535.14
  L 410.60 548.89
  A 4.25 4.24 -37.6 0 0 410.39 550.49
  L 412.81 595.89
  A 0.80 0.77 -64.0 0 0 412.94 596.29
  Q 413.29 596.81 413.33 597.75
  Q 413.79 607.57 413.83 607.99
  Q 414.63 615.86 414.60 623.24
  A 5.51 5.49 24.9 0 0 415.93 626.85
  Q 432.56 646.19 454.06 661.27"
/>
<path stroke="#e8bd4e" vector-effect="non-scaling-stroke" d="
  M 447.54 563.09
  Q 458.36 570.74 471.28 575.46
  A 0.79 0.77 -82.4 0 1 471.78 576.13
  Q 472.39 584.05 471.54 592.14
  A 0.43 0.42 -78.5 0 1 471.00 592.50
  C 468.13 591.65 464.05 589.38 460.38 590.28"
/>
<path stroke="#837146" vector-effect="non-scaling-stroke" d="
  M 460.38 590.28
  Q 460.11 589.88 458.38 589.77"
/>
<path stroke="#e8bd4e" vector-effect="non-scaling-stroke" d="
  M 458.38 589.77
  Q 457.23 598.51 458.48 607.43
  Q 459.79 616.78 459.83 617.29
  Q 460.21 623.06 460.58 627.21
  C 461.31 635.55 461.58 640.60 468.03 645.54
  A 0.86 0.86 0.0 0 1 468.38 646.29
  L 466.99 667.57
  A 0.28 0.28 0.0 0 1 466.56 667.79
  C 461.49 664.65 458.56 662.51 454.06 661.27"
/>
<path stroke="#e8bd4e" vector-effect="non-scaling-stroke" d="
  M 510.44 586.32
  L 510.93 593.71"
/>
<path stroke="#e8bd4e" vector-effect="non-scaling-stroke" d="
  M 511.18 678.12
  L 510.33 690.12"
/>
<path stroke="#8c7a4b" vector-effect="non-scaling-stroke" d="
  M 458.38 589.77
  Q 459.72 594.82 460.12 600.50
  Q 460.79 610.09 462.13 620.93
  Q 463.14 629.10 463.91 639.02
  A 3.46 3.45 -77.3 0 0 465.63 641.75
  L 481.94 651.17
  A 0.63 0.63 0.0 0 0 482.88 650.58
  L 479.12 597.83
  A 0.66 0.65 8.6 0 0 478.70 597.27
  L 460.38 590.28"
/>
<path stroke="#8c7a4b" vector-effect="non-scaling-stroke" d="
  M 583.25 638.75
  Q 553.56 661.52 518.74 675.58"
/>
<path stroke="#837146" vector-effect="non-scaling-stroke" d="
  M 518.74 675.58
  Q 514.64 677.68 511.18 678.12"
/>
<path stroke="#8c7a4b" vector-effect="non-scaling-stroke" d="
  M 511.18 678.12
  L 510.93 593.71"
/>
<path stroke="#837146" vector-effect="non-scaling-stroke" d="
  M 510.93 593.71
  Q 510.82 592.15 511.26 591.04
  A 0.90 0.88 -83.3 0 1 511.94 590.49
  L 522.33 588.74"
/>
<path stroke="#8c7a4b" vector-effect="non-scaling-stroke" d="
  M 522.33 588.74
  Q 551.26 582.04 577.06 566.97"
/>
<path stroke="#e8bd4e" vector-effect="non-scaling-stroke" d="
  M 522.33 588.74
  Q 522.28 585.08 525.26 582.69"
/>
<path stroke="#e8bd4e" vector-effect="non-scaling-stroke" d="
  M 589.07 643.75
  L 581.59 646.96
  A 1.02 1.02 0.0 0 1 580.25 645.62
  L 583.25 638.75"
/>
<path stroke="#837146" vector-effect="non-scaling-stroke" d="
  M 583.25 638.75
  Q 591.47 631.97 599.40 624.92
  Q 601.68 622.89 601.83 620.55
  Q 604.61 578.58 606.19 556.17
  C 606.61 550.20 606.18 546.70 604.03 541.80
  A 0.58 0.58 0.0 0 0 602.93 541.93
  L 601.31 550.29
  A 2.52 2.52 0.0 0 1 600.34 551.85
  Q 589.19 560.17 577.06 566.97"
/>
<path stroke="#e8bd4e" vector-effect="non-scaling-stroke" d="
  M 577.06 566.97
  L 573.93 562.12"
/>
<path stroke="#e8bd4e" vector-effect="non-scaling-stroke" d="
  M 520.69 686.25
  L 519.38 686.11
  A 0.33 0.33 0.0 0 1 519.28 685.48
  L 525.79 682.47
  A 0.91 0.90 -8.7 0 0 526.32 681.75
  Q 526.85 677.69 523.94 675.68
  A 1.03 1.03 0.0 0 0 522.98 675.57
  Q 520.92 676.42 518.74 675.58"
/>
<path stroke="#e8bd4e" vector-effect="non-scaling-stroke" d="
  M 536.29 377.13
  C 531.54 378.72 526.66 381.09 526.29 386.43
  C 525.99 390.77 529.62 392.84 533.41 393.92
  A 0.80 0.80 0.0 0 0 534.43 393.27
  L 536.90 377.64
  A 0.46 0.46 0.0 0 0 536.29 377.13"
/>
<path stroke="#e8bd4e" vector-effect="non-scaling-stroke" d="
  M 618.33 380.67
  Q 615.81 387.57 615.15 395.30
  A 0.90 0.87 25.3 0 0 615.42 396.02
  Q 624.93 405.41 629.16 412.34
  Q 632.96 418.58 635.64 423.19
  A 0.45 0.45 0.0 0 0 636.48 422.90
  Q 633.44 399.63 618.84 380.60
  A 0.30 0.29 36.5 0 0 618.33 380.67"
/>
<path stroke="#8c7a4b" vector-effect="non-scaling-stroke" d="
  M 481.37 527.56
  A 0.19 0.19 0.0 0 0 481.24 527.92
  L 510.88 540.92
  A 0.17 0.17 0.0 0 0 511.12 540.75
  L 510.84 535.43
  A 0.21 0.20 6.3 0 0 510.69 535.25
  L 481.37 527.56"
/>
<path stroke="#837146" vector-effect="non-scaling-stroke" d="
  M 443.11 583.94
  A 0.34 0.34 0.0 0 0 442.91 583.67
  L 427.25 576.80
  A 0.34 0.34 0.0 0 0 426.78 577.17
  L 434.00 618.29
  A 0.34 0.34 0.0 0 0 434.12 618.50
  L 448.35 629.62
  A 0.34 0.34 0.0 0 0 448.90 629.31
  L 443.11 583.94"
/>
<path stroke="#8c7a4b" vector-effect="non-scaling-stroke" d="
  M 571.42 587.39
  A 0.37 0.37 0.0 0 0 571.24 587.70
  L 570.59 627.74
  A 0.37 0.37 0.0 0 0 571.16 628.06
  L 584.36 619.67
  A 0.37 0.37 0.0 0 0 584.53 619.37
  L 585.85 579.71
  A 0.37 0.37 0.0 0 0 585.29 579.37
  L 571.42 587.39"
/>
<path stroke="#8c7a4b" vector-effect="non-scaling-stroke" d="
  M 536.53 649.13
  A 0.28 0.28 0.0 0 0 536.96 649.37
  Q 543.16 645.35 551.48 640.22
  C 553.31 639.10 551.98 637.24 551.98 636.00
  Q 551.95 616.70 551.45 596.80
  A 0.39 0.39 0.0 0 0 550.93 596.45
  L 536.82 601.45
  A 0.43 0.43 0.0 0 0 536.53 601.86
  L 536.53 649.13"
/>
</g>
<path fill="#272e43" d="
  M 279.06 761.29
  L 301.39 736.42
  A 1.83 1.83 0.0 0 1 302.84 735.81
  C 316.73 736.36 336.27 734.09 346.32 723.20
  Q 353.74 715.16 353.75 703.75
  Q 353.77 499.70 353.75 323.50
  C 353.75 305.33 342.62 296.56 326.24 293.78
  Q 317.59 292.32 310.50 292.85
  Q 304.51 293.30 303.48 293.34
  A 0.95 0.95 0.0 0 1 302.68 292.96
  L 280.63 263.02
  A 0.38 0.38 0.0 0 1 280.93 262.41
  L 743.90 262.41
  A 0.29 0.29 0.0 0 1 744.13 262.88
  L 720.51 293.09
  A 1.08 1.07 23.4 0 1 719.49 293.49
  Q 710.09 292.01 699.65 293.38
  C 686.59 295.10 674.40 300.56 670.71 314.44
  Q 669.49 319.02 669.59 328.18
  Q 669.62 330.46 669.59 695.99
  Q 669.59 708.94 671.15 713.39
  C 677.86 732.56 702.97 736.72 720.31 735.77
  A 2.31 2.31 0.0 0 1 722.16 736.54
  L 744.33 761.22
  A 0.33 0.32 -20.6 0 1 744.08 761.76
  L 279.27 761.76
  A 0.28 0.28 0.0 0 1 279.06 761.29
  Z
  M 346.29 293.00
  Q 357.08 299.74 360.51 310.97
  Q 362.11 316.23 362.11 330.17
  Q 362.07 470.01 362.12 690.14
  Q 362.13 707.74 361.26 711.67
  Q 358.71 723.26 348.79 731.03
  Q 341.64 736.62 330.23 739.99
  Q 319.36 742.49 316.25 742.50
  Q 311.41 742.51 306.45 743.00
  A 2.32 2.30 -71.8 0 0 304.96 743.76
  L 296.18 753.53
  A 0.76 0.75 -69.0 0 0 296.74 754.79
  L 726.98 754.79
  A 0.57 0.57 0.0 0 0 727.40 753.84
  L 717.89 743.25
  A 1.02 1.00 -20.3 0 0 717.13 742.91
  Q 714.46 742.96 706.78 742.38
  Q 696.66 741.62 686.21 737.54
  Q 678.35 734.47 672.03 728.99
  Q 665.30 722.33 662.60 713.46
  Q 661.28 709.12 661.28 701.40
  Q 661.20 512.20 661.28 323.00
  Q 661.29 308.63 670.05 298.49
  Q 678.67 290.48 690.23 287.61
  Q 702.01 284.70 715.26 285.52
  A 1.17 1.16 -68.5 0 0 716.24 285.09
  L 726.63 272.39
  A 0.29 0.24 85.3 0 0 726.68 272.32
  Q 727.07 271.27 728.26 270.50
  A 0.83 0.83 0.0 0 0 727.80 268.97
  L 295.90 268.97
  A 0.43 0.43 0.0 0 0 295.55 269.66
  L 306.78 284.90
  A 1.06 1.04 -18.3 0 0 307.65 285.33
  Q 310.36 285.28 320.00 285.51
  Q 320.04 285.51 326.24 286.22
  Q 336.17 287.37 346.29 293.00
  Z"
/>
<path fill="#6f0100" d="
  M 670.05 298.49
  C 662.09 296.72 659.90 287.07 658.40 280.33
  A 0.35 0.35 0.0 0 0 657.86 280.12
  L 614.59 310.00
  A 1.11 1.10 -17.7 0 0 614.12 310.90
  L 614.12 359.74
  A 0.11 0.11 0.0 0 1 613.91 359.77
  Q 612.62 356.07 612.61 351.63
  Q 612.56 326.46 612.69 310.81
  A 2.07 2.06 17.1 0 0 611.76 309.07
  L 560.95 275.61
  A 2.26 2.25 -41.0 0 0 558.72 275.46
  C 552.00 278.67 546.14 282.55 542.29 289.35
  C 529.04 284.79 518.63 285.21 501.76 285.47
  Q 490.40 285.64 478.65 290.36
  Q 462.82 296.73 458.48 313.09
  A 3.29 2.92 -41.5 0 0 458.39 313.83
  Q 458.39 315.84 457.70 317.78
  A 2.83 2.74 -36.5 0 0 457.55 318.68
  L 457.47 414.42
  Q 452.67 415.70 448.11 416.63
  C 440.16 418.25 436.51 412.20 435.37 405.36
  Q 433.88 396.34 433.91 384.89
  Q 434.00 338.40 433.59 295.00
  A 0.38 0.38 0.0 0 0 432.99 294.69
  L 410.51 310.22
  A 0.75 0.75 0.0 0 1 409.68 310.23
  L 356.58 275.25
  A 0.70 0.69 26.6 0 0 355.55 275.59
  Q 352.13 284.63 346.29 293.00
  Q 336.17 287.37 326.24 286.22
  Q 320.04 285.51 320.00 285.51
  Q 310.36 285.28 307.65 285.33
  A 1.06 1.04 -18.3 0 1 306.78 284.90
  L 295.55 269.66
  A 0.43 0.43 0.0 0 1 295.90 268.97
  L 727.80 268.97
  A 0.83 0.83 0.0 0 1 728.26 270.50
  Q 727.07 271.27 726.68 272.32
  A 0.29 0.24 85.3 0 1 726.63 272.39
  L 716.24 285.09
  A 1.17 1.16 -68.5 0 1 715.26 285.52
  Q 702.01 284.70 690.23 287.61
  Q 678.67 290.48 670.05 298.49
  Z"
/>
<path fill="#840100" d="
  M 457.47 414.42
  Q 437.82 422.09 424.56 436.57
  Q 409.70 452.78 406.77 475.32
  Q 405.70 483.56 405.68 486.66
  A 0.89 0.88 -12.7 0 1 405.18 487.44
  L 392.65 493.23
  A 1.38 1.38 0.0 0 0 391.85 494.48
  L 391.85 510.29
  A 1.65 1.64 -3.8 0 1 390.42 511.92
  L 381.56 513.05
  A 0.40 0.39 65.4 0 0 381.32 513.71
  L 391.94 525.54
  A 1.12 1.12 0.0 0 1 392.13 526.75
  Q 390.52 530.45 390.01 534.29
  Q 389.56 537.72 390.72 542.11
  C 392.72 549.61 396.80 554.46 402.17 560.02
  A 2.55 2.52 10.9 0 1 402.65 560.72
  Q 403.75 563.10 403.66 564.57
  Q 403.21 571.86 404.39 577.50
  A 13.06 12.49 -52.2 0 1 404.66 580.12
  Q 404.67 587.73 404.93 590.00
  Q 405.93 598.75 405.46 601.30
  A 2.84 2.69 -46.6 0 0 405.46 602.29
  Q 406.52 608.27 406.47 612.74
  C 406.42 618.19 407.17 621.95 407.41 627.63
  A 2.98 2.96 24.4 0 0 408.08 629.39
  Q 422.32 646.78 440.56 660.68
  Q 443.21 662.70 446.12 665.04
  C 439.20 663.97 436.66 668.98 435.63 674.88
  Q 434.17 683.25 434.14 693.86
  Q 434.09 709.64 434.99 728.75
  A 0.36 0.36 0.0 0 1 434.43 729.07
  L 410.81 713.52
  A 1.30 1.30 0.0 0 0 409.33 713.55
  Q 393.89 724.58 370.46 740.71
  Q 362.44 746.24 360.81 746.87
  Q 354.79 749.20 349.60 748.28
  Q 340.01 746.57 330.23 739.99
  Q 341.64 736.62 348.79 731.03
  Q 358.71 723.26 361.26 711.67
  Q 362.13 707.74 362.12 690.14
  Q 362.07 470.01 362.11 330.17
  Q 362.11 316.23 360.51 310.97
  Q 357.08 299.74 346.29 293.00
  Q 352.13 284.63 355.55 275.59
  A 0.70 0.69 26.6 0 1 356.58 275.25
  L 409.68 310.23
  A 0.75 0.75 0.0 0 0 410.51 310.22
  L 432.99 294.69
  A 0.38 0.38 0.0 0 1 433.59 295.00
  Q 434.00 338.40 433.91 384.89
  Q 433.88 396.34 435.37 405.36
  C 436.51 412.20 440.16 418.25 448.11 416.63
  Q 452.67 415.70 457.47 414.42
  Z"
/>
<path fill="#840100" d="
  M 670.05 298.49
  Q 661.29 308.63 661.28 323.00
  Q 661.20 512.20 661.28 701.40
  Q 661.28 709.12 662.60 713.46
  Q 665.30 722.33 672.03 728.99
  C 665.39 731.13 661.80 735.89 658.06 741.58
  A 0.49 0.47 -56.1 0 1 657.40 741.72
  L 614.57 713.51
  A 1.05 1.05 0.0 0 1 614.09 712.63
  L 614.09 631.53
  A 0.20 0.20 0.0 0 0 613.69 631.48
  Q 612.74 634.89 612.75 638.40
  Q 612.77 647.77 612.62 702.99
  Q 612.60 708.17 612.84 712.72
  A 1.94 1.93 -19.3 0 1 612.02 714.41
  Q 583.06 734.75 563.83 747.80
  Q 562.50 748.70 559.37 748.42
  A 0.81 0.81 0.0 0 1 558.70 747.91
  L 552.19 731.23
  Q 560.90 724.64 564.18 714.61
  Q 565.66 710.08 565.62 703.72
  Q 565.51 688.03 565.54 672.17
  A 1.92 1.92 0.0 0 1 566.41 670.56
  Q 579.09 662.20 590.13 652.63
  C 592.06 650.96 593.94 648.78 596.29 646.80
  Q 601.97 642.02 613.18 628.66
  A 1.85 1.85 0.0 0 0 613.61 627.53
  L 614.24 608.82
  A 0.51 0.51 0.0 0 1 614.40 608.45
  Q 614.57 608.28 614.60 608.25
  A 1.14 1.10 67.1 0 0 614.85 607.60
  L 617.46 561.79
  A 2.09 2.04 70.9 0 1 618.12 560.39
  C 624.05 554.91 629.00 548.00 630.51 539.90
  Q 631.18 536.33 630.65 533.10
  Q 630.01 529.25 628.77 526.66
  A 1.24 1.22 53.3 0 1 628.96 525.30
  L 639.07 514.05
  A 0.79 0.79 0.0 0 0 638.54 512.74
  L 631.10 512.26
  A 2.42 2.41 2.4 0 1 628.84 509.81
  L 629.08 494.75
  A 1.46 1.45 17.3 0 0 628.43 493.52
  L 626.57 492.30
  A 1.04 1.02 -67.0 0 1 626.14 491.21
  Q 626.76 488.44 625.93 486.26
  A 1.15 1.11 35.8 0 1 625.86 485.87
  L 625.86 469.51
  A 1.75 1.62 54.1 0 1 625.91 469.10
  Q 626.69 466.01 626.32 462.06
  A 0.75 0.73 64.1 0 1 626.51 461.49
  L 626.76 461.21
  A 0.45 0.45 0.0 0 1 627.49 461.30
  Q 631.76 469.17 633.92 477.02
  A 5.55 5.22 -70.9 0 0 634.57 478.47
  Q 635.98 480.67 635.76 482.86
  A 0.92 0.91 -70.9 0 0 636.17 483.71
  L 636.68 484.04
  A 0.43 0.43 0.0 0 0 637.35 483.70
  L 637.99 464.47
  A 3.66 3.63 -30.4 0 1 638.40 462.92
  Q 642.99 454.08 645.14 443.93
  Q 646.54 437.33 645.75 430.01
  Q 644.88 421.91 643.57 416.19
  C 636.70 386.09 619.05 361.57 592.34 346.22
  Q 586.90 343.09 583.69 341.56
  Q 574.83 337.31 566.15 334.84
  A 0.77 0.76 7.8 0 1 565.60 334.12
  Q 565.53 328.14 565.56 323.25
  Q 565.60 315.73 564.70 312.42
  C 561.60 300.94 553.42 293.24 542.29 289.35
  C 546.14 282.55 552.00 278.67 558.72 275.46
  A 2.26 2.25 -41.0 0 1 560.95 275.61
  L 611.76 309.07
  A 2.07 2.06 17.1 0 1 612.69 310.81
  Q 612.56 326.46 612.61 351.63
  Q 612.62 356.07 613.91 359.77
  A 0.11 0.11 0.0 0 0 614.12 359.74
  L 614.12 310.90
  A 1.11 1.10 -17.7 0 1 614.59 310.00
  L 657.86 280.12
  A 0.35 0.35 0.0 0 1 658.40 280.33
  C 659.90 287.07 662.09 296.72 670.05 298.49
  Z"
/>
<path fill="#272e43" d="
  M 542.29 289.35
  C 553.42 293.24 561.60 300.94 564.70 312.42
  Q 565.60 315.73 565.56 323.25
  Q 565.53 328.14 565.60 334.12
  A 0.77 0.76 7.8 0 0 566.15 334.84
  Q 574.83 337.31 583.69 341.56
  Q 586.90 343.09 592.34 346.22
  C 619.05 361.57 636.70 386.09 643.57 416.19
  Q 644.88 421.91 645.75 430.01
  Q 646.54 437.33 645.14 443.93
  Q 642.99 454.08 638.40 462.92
  A 3.66 3.63 -30.4 0 0 637.99 464.47
  L 637.35 483.70
  A 0.43 0.43 0.0 0 1 636.68 484.04
  L 636.17 483.71
  A 0.92 0.91 -70.9 0 1 635.76 482.86
  Q 635.98 480.67 634.57 478.47
  A 5.55 5.22 -70.9 0 1 633.92 477.02
  Q 631.76 469.17 627.49 461.30
  A 0.45 0.45 0.0 0 0 626.76 461.21
  L 626.51 461.49
  A 0.75 0.73 64.1 0 0 626.32 462.06
  Q 626.69 466.01 625.91 469.10
  A 1.75 1.62 54.1 0 0 625.86 469.51
  L 625.86 485.87
  A 1.15 1.11 35.8 0 0 625.93 486.26
  Q 626.76 488.44 626.14 491.21
  A 1.04 1.02 -67.0 0 0 626.57 492.30
  L 628.43 493.52
  A 1.46 1.45 17.3 0 1 629.08 494.75
  L 628.84 509.81
  A 2.42 2.41 2.4 0 0 631.10 512.26
  L 638.54 512.74
  A 0.79 0.79 0.0 0 1 639.07 514.05
  L 628.96 525.30
  A 1.24 1.22 53.3 0 0 628.77 526.66
  Q 630.01 529.25 630.65 533.10
  Q 631.18 536.33 630.51 539.90
  C 629.00 548.00 624.05 554.91 618.12 560.39
  A 2.09 2.04 70.9 0 0 617.46 561.79
  L 614.85 607.60
  A 1.14 1.10 67.1 0 1 614.60 608.25
  Q 614.57 608.28 614.40 608.45
  A 0.51 0.51 0.0 0 0 614.24 608.82
  L 613.61 627.53
  A 1.85 1.85 0.0 0 1 613.18 628.66
  Q 601.97 642.02 596.29 646.80
  C 593.94 648.78 592.06 650.96 590.13 652.63
  Q 579.09 662.20 566.41 670.56
  A 1.92 1.92 0.0 0 0 565.54 672.17
  Q 565.51 688.03 565.62 703.72
  Q 565.66 710.08 564.18 714.61
  Q 560.90 724.64 552.19 731.23
  C 543.00 738.03 531.75 741.31 520.72 742.36
  Q 516.40 742.77 504.88 742.56
  C 501.63 742.51 499.17 741.91 495.45 741.32
  Q 487.23 740.01 479.01 736.04
  C 468.89 731.15 461.89 723.83 458.74 713.42
  Q 457.37 708.88 457.47 699.46
  Q 457.60 687.11 457.52 673.79
  A 2.02 2.00 17.1 0 0 456.62 672.12
  L 446.12 665.04
  Q 443.21 662.70 440.56 660.68
  Q 422.32 646.78 408.08 629.39
  A 2.98 2.96 24.4 0 1 407.41 627.63
  C 407.17 621.95 406.42 618.19 406.47 612.74
  Q 406.52 608.27 405.46 602.29
  A 2.84 2.69 -46.6 0 1 405.46 601.30
  Q 405.93 598.75 404.93 590.00
  Q 404.67 587.73 404.66 580.12
  A 13.06 12.49 -52.2 0 0 404.39 577.50
  Q 403.21 571.86 403.66 564.57
  Q 403.75 563.10 402.65 560.72
  A 2.55 2.52 10.9 0 0 402.17 560.02
  C 396.80 554.46 392.72 549.61 390.72 542.11
  Q 389.56 537.72 390.01 534.29
  Q 390.52 530.45 392.13 526.75
  A 1.12 1.12 0.0 0 0 391.94 525.54
  L 381.32 513.71
  A 0.40 0.39 65.4 0 1 381.56 513.05
  L 390.42 511.92
  A 1.65 1.64 -3.8 0 0 391.85 510.29
  L 391.85 494.48
  A 1.38 1.38 0.0 0 1 392.65 493.23
  L 405.18 487.44
  A 0.89 0.88 -12.7 0 0 405.68 486.66
  Q 405.70 483.56 406.77 475.32
  Q 409.70 452.78 424.56 436.57
  Q 437.82 422.09 457.47 414.42
  L 457.55 318.68
  A 2.83 2.74 -36.5 0 1 457.70 317.78
  Q 458.39 315.84 458.39 313.83
  A 3.29 2.92 -41.5 0 1 458.48 313.09
  Q 462.82 296.73 478.65 290.36
  Q 490.40 285.64 501.76 285.47
  C 518.63 285.21 529.04 284.79 542.29 289.35
  Z
  M 466.23 364.57
  Q 469.92 358.55 472.68 355.42
  C 493.97 331.17 526.32 325.69 556.97 332.62
  A 0.44 0.43 -83.7 0 0 557.50 332.19
  C 557.45 324.97 557.92 321.12 556.79 315.67
  C 552.30 293.89 527.94 292.49 510.35 292.63
  C 494.44 292.76 473.82 294.40 467.53 312.16
  Q 465.78 317.10 465.97 328.18
  Q 466.14 338.22 466.10 359.14
  C 466.10 361.05 465.67 362.70 465.76 364.46
  A 0.26 0.25 -31.1 0 0 466.23 364.57
  Z
  M 524.47 367.68
  Q 536.33 367.30 548.82 370.67
  Q 551.32 371.34 552.00 371.86
  A 0.21 0.20 61.8 0 1 551.89 372.23
  Q 542.70 372.82 533.92 376.19
  C 528.00 378.46 521.57 383.24 524.52 390.33
  A 3.23 3.09 12.3 0 0 525.16 391.28
  Q 528.92 395.12 534.72 396.03
  Q 543.69 397.43 552.78 396.58
  Q 556.02 396.28 557.32 395.78
  C 562.54 393.79 567.71 393.65 572.81 395.85
  C 587.81 402.33 598.42 417.39 604.75 432.15
  A 0.34 0.34 0.0 0 1 604.19 432.51
  Q 597.47 424.97 588.09 421.14
  A 0.38 0.38 0.0 0 0 587.65 421.74
  Q 593.41 428.37 597.58 436.71
  C 599.65 440.85 602.45 444.65 604.62 448.06
  Q 609.03 454.98 611.69 464.29
  Q 612.90 468.54 613.97 474.50
  Q 614.63 478.19 614.83 486.56
  A 1.57 1.56 -86.3 0 0 616.15 488.07
  L 616.79 488.18
  A 0.68 0.68 0.0 0 0 617.54 487.30
  Q 613.69 475.31 613.43 461.72
  Q 613.35 457.46 614.07 453.79
  A 0.28 0.28 0.0 0 1 614.61 453.79
  L 619.05 477.04
  A 0.45 0.45 0.0 0 0 619.88 477.17
  Q 620.05 476.86 620.10 476.02
  Q 620.68 465.13 620.68 459.26
  C 620.68 452.53 620.34 444.72 618.49 437.89
  C 617.50 434.28 616.89 431.39 615.20 427.90
  C 609.91 416.98 602.03 408.24 593.03 400.21
  Q 582.73 391.03 572.65 383.49
  Q 572.45 383.34 572.11 382.91
  A 0.33 0.33 0.0 0 1 572.48 382.39
  Q 601.59 392.29 622.21 415.05
  A 0.39 0.39 0.0 0 0 622.83 414.59
  L 611.69 395.29
  A 0.04 0.03 -87.9 0 1 611.74 395.24
  Q 627.95 408.43 635.29 427.67
  Q 636.56 431.02 637.97 438.39
  A 0.52 0.51 -8.1 0 0 638.52 438.80
  L 638.54 438.80
  A 0.55 0.54 87.8 0 0 639.04 438.25
  Q 639.01 428.00 638.05 421.86
  Q 633.84 394.64 615.26 373.87
  A 5.45 5.32 -9.6 0 0 613.21 372.45
  Q 597.72 366.39 581.76 360.49
  Q 579.46 359.64 576.81 359.10
  A 0.26 0.26 0.0 0 1 576.84 358.58
  Q 588.66 357.57 599.73 361.60
  A 0.40 0.40 0.0 0 0 600.14 360.94
  Q 589.94 351.34 577.11 345.40
  Q 560.00 337.47 541.26 335.87
  C 535.03 335.34 527.07 335.64 521.18 338.72
  L 519.04 339.47
  Q 518.90 339.45 518.79 339.40
  A 0.31 0.31 0.0 0 1 518.75 338.84
  L 523.34 336.19
  A 0.27 0.27 0.0 0 0 523.24 335.69
  C 520.70 335.34 518.92 336.92 516.35 336.64
  A 0.84 0.84 0.0 0 0 515.66 336.87
  C 514.87 337.64 512.76 337.37 511.48 338.02
  A 0.61 0.40 -56.8 0 1 511.32 338.09
  Q 493.19 342.85 480.24 355.98
  Q 472.60 363.71 469.47 372.43
  Q 467.00 379.29 466.71 381.98
  Q 466.37 385.26 466.44 391.86
  C 466.48 395.77 467.29 399.15 468.63 402.16
  A 0.35 0.34 -55.9 0 0 469.29 402.03
  Q 469.77 392.57 472.58 383.02
  Q 475.06 374.58 480.09 367.68
  A 0.45 0.45 0.0 0 1 480.89 368.08
  Q 479.07 373.89 477.85 381.61
  Q 477.41 384.38 477.42 387.42
  C 477.44 392.36 476.98 396.36 480.74 398.93
  A 1.28 1.28 0.0 0 0 482.61 398.45
  C 489.86 384.03 500.41 372.88 516.52 368.95
  C 518.84 368.39 521.84 368.15 524.47 367.68
  Z
  M 436.22 435.23
  Q 414.69 454.44 413.73 483.93
  A 0.47 0.47 0.0 0 0 414.41 484.37
  L 422.79 480.28
  Q 464.82 465.17 509.77 459.02
  A 1.34 1.34 0.0 0 0 510.93 457.69
  L 510.93 404.72
  A 0.82 0.81 -0.7 0 1 511.73 403.91
  Q 513.80 403.86 515.49 404.09
  C 526.08 405.52 536.77 408.26 546.07 413.41
  A 0.83 0.78 5.9 0 1 546.44 413.84
  Q 546.61 414.36 546.09 414.93
  A 1.17 1.12 71.4 0 0 545.80 415.55
  C 545.43 418.10 544.75 420.68 544.73 422.88
  Q 544.70 429.96 545.86 437.59
  A 0.19 0.19 0.0 0 0 546.24 437.60
  C 546.69 435.41 546.53 433.27 546.99 430.73
  Q 548.75 421.12 553.49 412.46
  A 0.60 0.59 30.4 0 0 553.28 411.67
  Q 539.35 403.18 522.68 401.55
  Q 519.45 401.24 517.34 401.31
  C 512.66 401.48 508.28 400.91 504.00 401.31
  Q 484.38 403.13 467.73 412.75
  A 0.88 0.87 56.4 0 0 467.48 414.03
  Q 474.79 423.71 474.57 435.48
  Q 474.53 438.19 473.30 440.09
  A 0.29 0.29 0.0 0 1 472.76 439.95
  C 472.63 437.65 472.75 435.28 471.95 432.89
  Q 469.41 425.37 464.51 419.45
  A 1.03 1.01 -29.9 0 0 463.36 419.15
  Q 448.34 424.79 436.22 435.23
  Z
  M 597.72 462.63
  L 601.58 475.15
  A 0.76 0.75 86.7 0 1 600.72 476.12
  L 560.28 468.33
  A 0.22 0.22 0.0 0 0 560.03 468.62
  L 560.13 468.90
  A 0.19 0.19 0.0 0 0 560.24 469.01
  L 606.74 484.32
  A 0.42 0.42 0.0 0 0 607.29 483.93
  Q 607.66 470.82 602.57 459.12
  Q 598.14 449.15 592.07 442.42
  Q 578.78 427.68 557.73 418.96
  A 0.22 0.21 30.5 0 0 557.48 419.02
  L 555.15 422.01
  A 0.15 0.15 0.0 0 0 555.21 422.25
  Q 584.87 434.69 597.72 462.63
  Z
  M 462.64 474.80
  Q 431.37 482.84 400.84 496.27
  A 2.13 2.12 -12.0 0 0 399.57 498.21
  L 399.57 512.56
  A 0.66 0.66 0.0 0 0 400.25 513.22
  Q 417.60 512.72 434.62 516.16
  Q 439.69 517.18 444.06 519.22
  A 0.07 0.07 0.0 0 1 444.02 519.35
  Q 437.72 518.46 434.42 517.91
  Q 414.36 514.53 394.87 517.33
  A 0.39 0.38 64.9 0 0 394.64 517.97
  L 401.90 526.05
  A 1.92 1.91 72.2 0 0 403.12 526.68
  Q 431.01 529.65 457.51 538.70
  Q 484.71 547.63 510.47 560.62
  A 0.36 0.36 0.0 0 0 510.99 560.30
  L 510.99 541.60
  A 0.33 0.31 -13.3 0 1 511.18 541.31
  L 541.26 527.40
  A 0.02 0.02 0.0 0 0 541.27 527.37
  L 541.20 527.11
  A 0.18 0.17 -13.6 0 0 540.99 526.99
  L 511.62 534.99
  A 0.55 0.55 0.0 0 1 510.93 534.46
  L 510.93 464.86
  A 0.37 0.37 0.0 0 0 510.50 464.50
  Q 486.14 468.58 462.64 474.80
  Z
  M 519.54 466.79
  Q 553.79 476.30 587.20 488.35
  Q 601.00 493.41 614.30 499.81
  A 1.66 1.64 15.1 0 1 615.23 501.41
  L 614.57 511.64
  A 0.88 0.88 0.0 0 0 615.45 512.58
  L 620.92 512.58
  A 0.84 0.84 0.0 0 0 621.76 511.74
  L 621.76 497.90
  A 1.17 1.17 0.0 0 0 621.01 496.81
  L 589.82 484.64
  Q 555.78 472.18 520.04 466.00
  Q 518.72 465.46 517.09 465.63
  A 0.74 0.73 -31.9 0 1 516.61 465.52
  L 515.42 464.80
  A 0.13 0.13 0.0 0 0 515.27 464.81
  L 515.11 464.95
  A 0.27 0.26 36.6 0 0 515.17 465.32
  Q 517.13 466.72 519.54 466.79
  Z
  M 596.17 525.14
  Q 551.27 532.05 514.28 558.25
  Q 514.04 558.41 513.94 558.62
  A 0.30 0.30 0.0 0 0 514.35 559.02
  Q 526.62 552.23 540.06 546.83
  C 559.10 539.17 578.62 532.55 598.74 528.67
  L 616.95 526.63
  A 3.87 3.84 17.4 0 0 619.37 525.38
  L 625.65 518.40
  A 0.56 0.56 0.0 0 0 625.20 517.47
  Q 622.37 517.63 615.50 516.88
  Q 611.02 516.39 600.19 516.26
  Q 593.21 516.17 587.36 516.96
  Q 578.18 518.20 574.70 519.22
  Q 574.06 519.41 573.61 519.69
  A 0.28 0.28 0.0 0 0 573.76 520.20
  Q 586.81 520.06 603.00 520.68
  Q 608.56 520.89 613.00 521.88
  A 0.55 0.55 0.0 0 1 613.09 522.93
  Q 612.13 523.32 610.82 523.37
  Q 603.47 523.67 596.17 525.14
  Z
  M 620.42 547.25
  C 623.52 542.93 623.99 538.45 623.60 533.07
  A 0.48 0.48 0.0 0 0 623.08 532.62
  L 620.43 532.80
  A 0.44 0.44 0.0 0 0 620.03 533.30
  Q 620.66 537.23 620.37 540.39
  Q 619.75 547.04 619.81 547.17
  A 0.35 0.35 0.0 0 0 620.42 547.25
  Z
  M 403.72 544.09
  L 406.90 534.44
  A 0.47 0.46 13.4 0 0 406.52 533.83
  L 403.58 533.44
  L 398.93 533.19
  A 0.60 0.59 -83.5 0 0 398.31 533.69
  Q 397.19 540.77 401.04 546.99
  A 0.96 0.96 0.0 0 0 402.76 546.80
  L 403.72 544.09
  Z
  M 454.06 661.27
  Q 475.98 676.91 501.10 686.58
  Q 505.39 688.23 510.33 690.12
  L 520.69 686.25
  Q 558.60 670.86 589.07 643.75
  Q 597.59 636.17 605.64 626.28
  A 3.02 3.00 -23.9 0 0 606.31 624.57
  L 611.16 550.00
  A 3.16 3.04 37.6 0 0 610.97 548.73
  L 605.93 535.62
  A 1.56 1.55 -18.0 0 0 604.07 534.68
  L 599.21 536.00
  A 0.91 0.89 -11.3 0 0 598.55 536.97
  Q 599.00 540.63 599.17 544.25
  Q 599.28 546.67 597.88 547.63
  Q 587.22 554.84 573.93 562.12
  Q 550.51 574.71 525.26 582.69
  Q 521.54 583.57 515.44 585.44
  Q 513.36 586.07 510.44 586.32
  Q 477.99 578.26 447.54 563.09
  Q 436.48 556.67 425.64 549.36
  Q 424.37 548.51 422.61 546.83
  A 0.85 0.84 20.3 0 1 422.35 546.27
  L 421.82 536.21
  A 0.71 0.71 0.0 0 0 421.24 535.55
  L 416.11 534.56
  A 0.87 0.86 -75.4 0 0 415.13 535.14
  L 410.60 548.89
  A 4.25 4.24 -37.6 0 0 410.39 550.49
  L 412.81 595.89
  A 0.80 0.77 -64.0 0 0 412.94 596.29
  Q 413.29 596.81 413.33 597.75
  Q 413.79 607.57 413.83 607.99
  Q 414.63 615.86 414.60 623.24
  A 5.51 5.49 24.9 0 0 415.93 626.85
  Q 432.56 646.19 454.06 661.27
  Z
  M 465.87 678.26
  Q 466.27 683.98 466.06 698.61
  Q 465.92 708.78 467.17 712.79
  C 471.37 726.25 484.99 732.45 498.55 734.71
  C 517.41 737.84 548.28 734.94 555.99 713.69
  Q 557.67 709.07 557.50 700.48
  Q 557.40 695.76 557.50 676.69
  A 0.36 0.35 -15.5 0 0 556.96 676.39
  Q 535.28 689.13 511.25 696.80
  A 2.68 2.62 44.4 0 1 509.66 696.80
  C 494.71 692.13 480.24 685.63 466.38 677.94
  A 0.34 0.34 0.0 0 0 465.87 678.26
  Z"
/>
<path fill="#bb8722" d="
  M 519.04 339.47
  L 519.38 348.13
  A 0.75 0.73 -12.6 0 1 518.92 348.84
  Q 501.54 356.14 490.03 372.25
  Q 488.67 374.16 489.39 375.28
  L 488.77 376.88
  A 0.23 0.23 0.0 0 0 489.16 377.11
  Q 494.05 371.45 499.22 366.73
  Q 501.96 364.22 504.83 362.42
  Q 509.68 361.62 513.85 358.61
  A 0.45 0.45 0.0 0 1 514.56 359.04
  L 513.20 367.64
  A 0.23 0.22 -0.2 0 0 513.46 367.89
  L 522.96 366.33
  L 524.47 367.68
  C 521.84 368.15 518.84 368.39 516.52 368.95
  C 500.41 372.88 489.86 384.03 482.61 398.45
  A 1.28 1.28 0.0 0 1 480.74 398.93
  C 476.98 396.36 477.44 392.36 477.42 387.42
  Q 477.41 384.38 477.85 381.61
  Q 479.07 373.89 480.89 368.08
  A 0.45 0.45 0.0 0 0 480.09 367.68
  Q 475.06 374.58 472.58 383.02
  Q 469.77 392.57 469.29 402.03
  A 0.35 0.34 -55.9 0 1 468.63 402.16
  C 467.29 399.15 466.48 395.77 466.44 391.86
  Q 466.37 385.26 466.71 381.98
  Q 467.00 379.29 469.47 372.43
  Q 472.60 363.71 480.24 355.98
  Q 493.19 342.85 511.32 338.09
  A 0.61 0.40 -56.8 0 0 511.48 338.02
  C 512.76 337.37 514.87 337.64 515.66 336.87
  A 0.84 0.84 0.0 0 1 516.35 336.64
  C 518.92 336.92 520.70 335.34 523.24 335.69
  A 0.27 0.27 0.0 0 1 523.34 336.19
  L 518.75 338.84
  A 0.31 0.31 0.0 0 0 518.79 339.40
  Q 518.90 339.45 519.04 339.47
  Z"
/>
<path fill="#f1c652" d="
  M 524.47 367.68
  L 522.96 366.33
  L 540.27 366.65
  A 0.78 0.78 0.0 0 0 540.98 366.22
  Q 544.41 359.29 546.48 351.84
  A 0.28 0.28 0.0 0 0 546.22 351.48
  L 534.10 351.29
  A 0.14 0.14 0.0 0 1 534.06 351.02
  Q 534.31 350.94 534.35 350.88
  A 0.27 0.25 -65.6 0 0 534.20 350.45
  L 533.54 350.35
  Q 543.50 348.49 554.46 349.65
  A 0.35 0.35 0.0 0 0 554.64 348.98
  Q 553.52 348.46 551.78 348.20
  Q 541.83 346.70 531.83 347.56
  Q 528.11 347.19 533.53 345.95
  Q 537.65 345.01 541.49 344.92
  A 0.26 0.24 -79.7 0 0 541.72 344.75
  L 543.84 338.31
  A 0.13 0.13 0.0 0 0 543.73 338.14
  Q 534.65 337.34 529.40 338.01
  Q 523.56 338.75 521.18 338.72
  C 527.07 335.64 535.03 335.34 541.26 335.87
  Q 560.00 337.47 577.11 345.40
  Q 589.94 351.34 600.14 360.94
  A 0.40 0.40 0.0 0 1 599.73 361.60
  Q 588.66 357.57 576.84 358.58
  A 0.26 0.26 0.0 0 0 576.81 359.10
  Q 579.46 359.64 581.76 360.49
  Q 597.72 366.39 613.21 372.45
  A 5.45 5.32 -9.6 0 1 615.26 373.87
  Q 633.84 394.64 638.05 421.86
  Q 639.01 428.00 639.04 438.25
  A 0.55 0.54 87.8 0 1 638.54 438.80
  L 638.52 438.80
  A 0.52 0.51 -8.1 0 1 637.97 438.39
  Q 636.56 431.02 635.29 427.67
  Q 627.95 408.43 611.74 395.24
  A 0.04 0.03 -87.9 0 0 611.69 395.29
  L 622.83 414.59
  A 0.39 0.39 0.0 0 1 622.21 415.05
  Q 601.59 392.29 572.48 382.39
  A 0.33 0.33 0.0 0 0 572.11 382.91
  Q 572.45 383.34 572.65 383.49
  Q 582.73 391.03 593.03 400.21
  C 602.03 408.24 609.91 416.98 615.20 427.90
  C 616.89 431.39 617.50 434.28 618.49 437.89
  C 620.34 444.72 620.68 452.53 620.68 459.26
  Q 620.68 465.13 620.10 476.02
  Q 620.05 476.86 619.88 477.17
  A 0.45 0.45 0.0 0 1 619.05 477.04
  L 614.61 453.79
  A 0.28 0.28 0.0 0 0 614.07 453.79
  Q 613.35 457.46 613.43 461.72
  Q 613.69 475.31 617.54 487.30
  A 0.68 0.68 0.0 0 1 616.79 488.18
  L 616.15 488.07
  A 1.57 1.56 -86.3 0 1 614.83 486.56
  Q 614.63 478.19 613.97 474.50
  Q 612.90 468.54 611.69 464.29
  Q 609.03 454.98 604.62 448.06
  C 602.45 444.65 599.65 440.85 597.58 436.71
  Q 593.41 428.37 587.65 421.74
  A 0.38 0.38 0.0 0 1 588.09 421.14
  Q 597.47 424.97 604.19 432.51
  A 0.34 0.34 0.0 0 0 604.75 432.15
  C 598.42 417.39 587.81 402.33 572.81 395.85
  C 567.71 393.65 562.54 393.79 557.32 395.78
  Q 556.02 396.28 552.78 396.58
  Q 543.69 397.43 534.72 396.03
  Q 528.92 395.12 525.16 391.28
  A 3.23 3.09 12.3 0 1 524.52 390.33
  C 521.57 383.24 528.00 378.46 533.92 376.19
  Q 542.70 372.82 551.89 372.23
  A 0.21 0.20 61.8 0 0 552.00 371.86
  Q 551.32 371.34 548.82 370.67
  Q 536.33 367.30 524.47 367.68
  Z
  M 536.29 377.13
  C 531.54 378.72 526.66 381.09 526.29 386.43
  C 525.99 390.77 529.62 392.84 533.41 393.92
  A 0.80 0.80 0.0 0 0 534.43 393.27
  L 536.90 377.64
  A 0.46 0.46 0.0 0 0 536.29 377.13
  Z
  M 618.33 380.67
  Q 615.81 387.57 615.15 395.30
  A 0.90 0.87 25.3 0 0 615.42 396.02
  Q 624.93 405.41 629.16 412.34
  Q 632.96 418.58 635.64 423.19
  A 0.45 0.45 0.0 0 0 636.48 422.90
  Q 633.44 399.63 618.84 380.60
  A 0.30 0.29 36.5 0 0 618.33 380.67
  Z"
/>
<path fill="#deb349" d="
  M 531.83 347.56
  C 513.36 349.94 499.79 360.28 489.39 375.28
  Q 488.67 374.16 490.03 372.25
  Q 501.54 356.14 518.92 348.84
  A 0.75 0.73 -12.6 0 0 519.38 348.13
  L 519.04 339.47
  L 521.18 338.72
  Q 523.56 338.75 529.40 338.01
  Q 534.65 337.34 543.73 338.14
  A 0.13 0.13 0.0 0 1 543.84 338.31
  L 541.72 344.75
  A 0.26 0.24 -79.7 0 1 541.49 344.92
  Q 537.65 345.01 533.53 345.95
  Q 528.11 347.19 531.83 347.56
  Z"
/>
<path fill="#272e43" d="
  M 533.54 350.35
  Q 530.50 350.88 529.75 351.06
  Q 516.43 354.26 504.83 362.42
  Q 501.96 364.22 499.22 366.73
  Q 494.05 371.45 489.16 377.11
  A 0.23 0.23 0.0 0 1 488.77 376.88
  L 489.39 375.28
  C 499.79 360.28 513.36 349.94 531.83 347.56
  Q 541.83 346.70 551.78 348.20
  Q 553.52 348.46 554.64 348.98
  A 0.35 0.35 0.0 0 1 554.46 349.65
  Q 543.50 348.49 533.54 350.35
  Z"
/>
<path fill="#deb349" d="
  M 533.54 350.35
  L 534.20 350.45
  A 0.27 0.25 -65.6 0 1 534.35 350.88
  Q 534.31 350.94 534.06 351.02
  A 0.14 0.14 0.0 0 0 534.10 351.29
  L 546.22 351.48
  A 0.28 0.28 0.0 0 1 546.48 351.84
  Q 544.41 359.29 540.98 366.22
  A 0.78 0.78 0.0 0 1 540.27 366.65
  L 522.96 366.33
  L 513.46 367.89
  A 0.23 0.22 -0.2 0 1 513.20 367.64
  L 514.56 359.04
  A 0.45 0.45 0.0 0 0 513.85 358.61
  Q 509.68 361.62 504.83 362.42
  Q 516.43 354.26 529.75 351.06
  Q 530.50 350.88 533.54 350.35
  Z"
/>
<path fill="#deb349" d="
  M 536.90 377.64
  L 534.43 393.27
  A 0.80 0.80 0.0 0 1 533.41 393.92
  C 529.62 392.84 525.99 390.77 526.29 386.43
  C 526.66 381.09 531.54 378.72 536.29 377.13
  A 0.46 0.46 0.0 0 1 536.90 377.64
  Z"
/>
<path fill="#deb349" d="
  M 618.84 380.60
  Q 633.44 399.63 636.48 422.90
  A 0.45 0.45 0.0 0 1 635.64 423.19
  Q 632.96 418.58 629.16 412.34
  Q 624.93 405.41 615.42 396.02
  A 0.90 0.87 25.3 0 1 615.15 395.30
  Q 615.81 387.57 618.33 380.67
  A 0.30 0.29 36.5 0 1 618.84 380.60
  Z"
/>
<path fill="#f1c652" d="
  M 422.79 480.28
  Q 437.96 472.41 454.98 468.37
  A 1.49 1.49 0.0 0 0 455.60 468.04
  Q 462.24 461.87 464.25 453.56
  C 466.55 443.97 465.88 433.80 465.03 423.25
  A 0.79 0.79 0.0 0 0 464.46 422.55
  Q 460.99 421.58 457.15 423.51
  Q 448.70 427.74 440.92 433.10
  Q 439.71 433.92 436.22 435.23
  Q 448.34 424.79 463.36 419.15
  A 1.03 1.01 -29.9 0 1 464.51 419.45
  Q 469.41 425.37 471.95 432.89
  C 472.75 435.28 472.63 437.65 472.76 439.95
  A 0.29 0.29 0.0 0 0 473.30 440.09
  Q 474.53 438.19 474.57 435.48
  Q 474.79 423.71 467.48 414.03
  A 0.88 0.87 56.4 0 1 467.73 412.75
  Q 484.38 403.13 504.00 401.31
  C 508.28 400.91 512.66 401.48 517.34 401.31
  Q 519.45 401.24 522.68 401.55
  Q 539.35 403.18 553.28 411.67
  A 0.60 0.59 30.4 0 1 553.49 412.46
  Q 548.75 421.12 546.99 430.73
  C 546.53 433.27 546.69 435.41 546.24 437.60
  A 0.19 0.19 0.0 0 1 545.86 437.59
  Q 544.70 429.96 544.73 422.88
  C 544.75 420.68 545.43 418.10 545.80 415.55
  A 1.17 1.12 71.4 0 1 546.09 414.93
  Q 546.61 414.36 546.44 413.84
  A 0.83 0.78 5.9 0 0 546.07 413.41
  C 536.77 408.26 526.08 405.52 515.49 404.09
  Q 513.80 403.86 511.73 403.91
  A 0.82 0.81 -0.7 0 0 510.93 404.72
  L 510.93 457.69
  A 1.34 1.34 0.0 0 1 509.77 459.02
  Q 464.82 465.17 422.79 480.28
  Z"
/>
<path fill="#f1c652" d="
  M 602.57 459.12
  L 602.24 459.98
  A 0.45 0.45 0.0 0 1 601.41 460.00
  C 596.41 448.21 588.70 439.80 578.06 432.08
  A 0.43 0.43 0.0 0 0 577.38 432.38
  L 577.36 432.50
  A 1.31 1.30 -66.5 0 0 577.80 433.64
  Q 590.73 444.94 598.25 460.18
  Q 600.25 464.23 597.72 462.63
  Q 584.87 434.69 555.21 422.25
  A 0.15 0.15 0.0 0 1 555.15 422.01
  L 557.48 419.02
  A 0.22 0.21 30.5 0 1 557.73 418.96
  Q 578.78 427.68 592.07 442.42
  Q 598.14 449.15 602.57 459.12
  Z"
/>
<path fill="#deb349" d="
  M 422.79 480.28
  L 414.41 484.37
  A 0.47 0.47 0.0 0 1 413.73 483.93
  Q 414.69 454.44 436.22 435.23
  Q 439.71 433.92 440.92 433.10
  Q 448.70 427.74 457.15 423.51
  Q 460.99 421.58 464.46 422.55
  A 0.79 0.79 0.0 0 1 465.03 423.25
  C 465.88 433.80 466.55 443.97 464.25 453.56
  Q 462.24 461.87 455.60 468.04
  A 1.49 1.49 0.0 0 1 454.98 468.37
  Q 437.96 472.41 422.79 480.28
  Z"
/>
<path fill="#deb349" d="
  M 602.57 459.12
  Q 607.66 470.82 607.29 483.93
  A 0.42 0.42 0.0 0 1 606.74 484.32
  L 560.24 469.01
  A 0.19 0.19 0.0 0 1 560.13 468.90
  L 560.03 468.62
  A 0.22 0.22 0.0 0 1 560.28 468.33
  L 600.72 476.12
  A 0.76 0.75 86.7 0 0 601.58 475.15
  L 597.72 462.63
  Q 600.25 464.23 598.25 460.18
  Q 590.73 444.94 577.80 433.64
  A 1.31 1.30 -66.5 0 1 577.36 432.50
  L 577.38 432.38
  A 0.43 0.43 0.0 0 1 578.06 432.08
  C 588.70 439.80 596.41 448.21 601.41 460.00
  A 0.45 0.45 0.0 0 0 602.24 459.98
  L 602.57 459.12
  Z"
/>
<path fill="#f1c652" d="
  M 457.51 538.70
  Q 464.39 530.63 465.67 520.10
  Q 468.45 497.20 462.64 474.80
  Q 486.14 468.58 510.50 464.50
  A 0.37 0.37 0.0 0 1 510.93 464.86
  L 510.93 534.46
  A 0.55 0.55 0.0 0 0 511.62 534.99
  L 540.99 526.99
  A 0.18 0.17 -13.6 0 1 541.20 527.11
  L 541.27 527.37
  A 0.02 0.02 0.0 0 1 541.26 527.40
  L 511.18 541.31
  A 0.33 0.31 -13.3 0 0 510.99 541.60
  L 510.99 560.30
  A 0.36 0.36 0.0 0 1 510.47 560.62
  Q 484.71 547.63 457.51 538.70
  Z
  M 481.37 527.56
  A 0.19 0.19 0.0 0 0 481.24 527.92
  L 510.88 540.92
  A 0.17 0.17 0.0 0 0 511.12 540.75
  L 510.84 535.43
  A 0.21 0.20 6.3 0 0 510.69 535.25
  L 481.37 527.56
  Z"
/>
<path fill="#bb8722" d="
  M 520.04 466.00
  Q 519.59 466.25 519.54 466.79
  Q 517.13 466.72 515.17 465.32
  A 0.27 0.26 36.6 0 1 515.11 464.95
  L 515.27 464.81
  A 0.13 0.13 0.0 0 1 515.42 464.80
  L 516.61 465.52
  A 0.74 0.73 -31.9 0 0 517.09 465.63
  Q 518.72 465.46 520.04 466.00
  Z"
/>
<path fill="#f1c652" d="
  M 520.04 466.00
  Q 555.78 472.18 589.82 484.64
  Q 589.11 486.92 587.20 488.35
  Q 553.79 476.30 519.54 466.79
  Q 519.59 466.25 520.04 466.00
  Z"
/>
<path fill="#deb349" d="
  M 462.64 474.80
  Q 468.45 497.20 465.67 520.10
  Q 464.39 530.63 457.51 538.70
  Q 431.01 529.65 403.12 526.68
  A 1.92 1.91 72.2 0 1 401.90 526.05
  L 394.64 517.97
  A 0.39 0.38 64.9 0 1 394.87 517.33
  Q 414.36 514.53 434.42 517.91
  Q 437.72 518.46 444.02 519.35
  A 0.07 0.07 0.0 0 0 444.06 519.22
  Q 439.69 517.18 434.62 516.16
  Q 417.60 512.72 400.25 513.22
  A 0.66 0.66 0.0 0 1 399.57 512.56
  L 399.57 498.21
  A 2.13 2.12 -12.0 0 1 400.84 496.27
  Q 431.37 482.84 462.64 474.80
  Z"
/>
<path fill="#deb349" d="
  M 587.20 488.35
  Q 589.11 486.92 589.82 484.64
  L 621.01 496.81
  A 1.17 1.17 0.0 0 1 621.76 497.90
  L 621.76 511.74
  A 0.84 0.84 0.0 0 1 620.92 512.58
  L 615.45 512.58
  A 0.88 0.88 0.0 0 1 614.57 511.64
  L 615.23 501.41
  A 1.66 1.64 15.1 0 0 614.30 499.81
  Q 601.00 493.41 587.20 488.35
  Z"
/>
<path fill="#deb349" d="
  M 598.74 528.67
  Q 599.60 527.78 599.68 526.98
  A 0.89 0.89 0.0 0 0 599.26 526.14
  Q 598.10 525.43 596.17 525.14
  Q 603.47 523.67 610.82 523.37
  Q 612.13 523.32 613.09 522.93
  A 0.55 0.55 0.0 0 0 613.00 521.88
  Q 608.56 520.89 603.00 520.68
  Q 586.81 520.06 573.76 520.20
  A 0.28 0.28 0.0 0 1 573.61 519.69
  Q 574.06 519.41 574.70 519.22
  Q 578.18 518.20 587.36 516.96
  Q 593.21 516.17 600.19 516.26
  Q 611.02 516.39 615.50 516.88
  Q 622.37 517.63 625.20 517.47
  A 0.56 0.56 0.0 0 1 625.65 518.40
  L 619.37 525.38
  A 3.87 3.84 17.4 0 1 616.95 526.63
  L 598.74 528.67
  Z"
/>
<path fill="#f1c652" d="
  M 598.74 528.67
  C 578.62 532.55 559.10 539.17 540.06 546.83
  Q 526.62 552.23 514.35 559.02
  A 0.30 0.30 0.0 0 1 513.94 558.62
  Q 514.04 558.41 514.28 558.25
  Q 551.27 532.05 596.17 525.14
  Q 598.10 525.43 599.26 526.14
  A 0.89 0.89 0.0 0 1 599.68 526.98
  Q 599.60 527.78 598.74 528.67
  Z"
/>
<path fill="#272e43" d="
  M 481.37 527.56
  L 510.69 535.25
  A 0.21 0.20 6.3 0 1 510.84 535.43
  L 511.12 540.75
  A 0.17 0.17 0.0 0 1 510.88 540.92
  L 481.24 527.92
  A 0.19 0.19 0.0 0 1 481.37 527.56
  Z"
/>
<path fill="#deb349" d="
  M 619.81 547.17
  Q 619.75 547.04 620.37 540.39
  Q 620.66 537.23 620.03 533.30
  A 0.44 0.44 0.0 0 1 620.43 532.80
  L 623.08 532.62
  A 0.48 0.48 0.0 0 1 623.60 533.07
  C 623.99 538.45 623.52 542.93 620.42 547.25
  A 0.35 0.35 0.0 0 1 619.81 547.17
  Z"
/>
<path fill="#f1c652" d="
  M 403.58 533.44
  L 403.72 544.09
  L 402.76 546.80
  A 0.96 0.96 0.0 0 1 401.04 546.99
  Q 397.19 540.77 398.31 533.69
  A 0.60 0.59 -83.5 0 1 398.93 533.19
  L 403.58 533.44
  Z"
/>
<path fill="#bb8722" d="
  M 403.58 533.44
  L 406.52 533.83
  A 0.47 0.46 13.4 0 1 406.90 534.44
  L 403.72 544.09
  L 403.58 533.44
  Z"
/>
<path fill="#deb349" d="
  M 447.54 563.09
  Q 458.36 570.74 471.28 575.46
  A 0.79 0.77 -82.4 0 1 471.78 576.13
  Q 472.39 584.05 471.54 592.14
  A 0.43 0.42 -78.5 0 1 471.00 592.50
  C 468.13 591.65 464.05 589.38 460.38 590.28
  Q 460.11 589.88 458.38 589.77
  Q 457.23 598.51 458.48 607.43
  Q 459.79 616.78 459.83 617.29
  Q 460.21 623.06 460.58 627.21
  C 461.31 635.55 461.58 640.60 468.03 645.54
  A 0.86 0.86 0.0 0 1 468.38 646.29
  L 466.99 667.57
  A 0.28 0.28 0.0 0 1 466.56 667.79
  C 461.49 664.65 458.56 662.51 454.06 661.27
  Q 432.56 646.19 415.93 626.85
  A 5.51 5.49 24.9 0 1 414.60 623.24
  Q 414.63 615.86 413.83 607.99
  Q 413.79 607.57 413.33 597.75
  Q 413.29 596.81 412.94 596.29
  A 0.80 0.77 -64.0 0 1 412.81 595.89
  L 410.39 550.49
  A 4.25 4.24 -37.6 0 1 410.60 548.89
  L 415.13 535.14
  A 0.87 0.86 -75.4 0 1 416.11 534.56
  L 421.24 535.55
  A 0.71 0.71 0.0 0 1 421.82 536.21
  L 422.35 546.27
  A 0.85 0.84 20.3 0 0 422.61 546.83
  Q 424.37 548.51 425.64 549.36
  Q 436.48 556.67 447.54 563.09
  Z
  M 443.11 583.94
  A 0.34 0.34 0.0 0 0 442.91 583.67
  L 427.25 576.80
  A 0.34 0.34 0.0 0 0 426.78 577.17
  L 434.00 618.29
  A 0.34 0.34 0.0 0 0 434.12 618.50
  L 448.35 629.62
  A 0.34 0.34 0.0 0 0 448.90 629.31
  L 443.11 583.94
  Z"
/>
<path fill="#deb349" d="
  M 589.07 643.75
  L 581.59 646.96
  A 1.02 1.02 0.0 0 1 580.25 645.62
  L 583.25 638.75
  Q 591.47 631.97 599.40 624.92
  Q 601.68 622.89 601.83 620.55
  Q 604.61 578.58 606.19 556.17
  C 606.61 550.20 606.18 546.70 604.03 541.80
  A 0.58 0.58 0.0 0 0 602.93 541.93
  L 601.31 550.29
  A 2.52 2.52 0.0 0 1 600.34 551.85
  Q 589.19 560.17 577.06 566.97
  L 573.93 562.12
  Q 587.22 554.84 597.88 547.63
  Q 599.28 546.67 599.17 544.25
  Q 599.00 540.63 598.55 536.97
  A 0.91 0.89 -11.3 0 1 599.21 536.00
  L 604.07 534.68
  A 1.56 1.55 -18.0 0 1 605.93 535.62
  L 610.97 548.73
  A 3.16 3.04 37.6 0 1 611.16 550.00
  L 606.31 624.57
  A 3.02 3.00 -23.9 0 1 605.64 626.28
  Q 597.59 636.17 589.07 643.75
  Z"
/>
<path fill="#272e43" d="
  M 583.25 638.75
  Q 553.56 661.52 518.74 675.58
  Q 514.64 677.68 511.18 678.12
  L 510.93 593.71
  Q 510.82 592.15 511.26 591.04
  A 0.90 0.88 -83.3 0 1 511.94 590.49
  L 522.33 588.74
  Q 551.26 582.04 577.06 566.97
  Q 589.19 560.17 600.34 551.85
  A 2.52 2.52 0.0 0 0 601.31 550.29
  L 602.93 541.93
  A 0.58 0.58 0.0 0 1 604.03 541.80
  C 606.18 546.70 606.61 550.20 606.19 556.17
  Q 604.61 578.58 601.83 620.55
  Q 601.68 622.89 599.40 624.92
  Q 591.47 631.97 583.25 638.75
  Z
  M 571.42 587.39
  A 0.37 0.37 0.0 0 0 571.24 587.70
  L 570.59 627.74
  A 0.37 0.37 0.0 0 0 571.16 628.06
  L 584.36 619.67
  A 0.37 0.37 0.0 0 0 584.53 619.37
  L 585.85 579.71
  A 0.37 0.37 0.0 0 0 585.29 579.37
  L 571.42 587.39
  Z
  M 536.53 649.13
  A 0.28 0.28 0.0 0 0 536.96 649.37
  Q 543.16 645.35 551.48 640.22
  C 553.31 639.10 551.98 637.24 551.98 636.00
  Q 551.95 616.70 551.45 596.80
  A 0.39 0.39 0.0 0 0 550.93 596.45
  L 536.82 601.45
  A 0.43 0.43 0.0 0 0 536.53 601.86
  L 536.53 649.13
  Z"
/>
<path fill="#f1c652" d="
  M 573.93 562.12
  L 577.06 566.97
  Q 551.26 582.04 522.33 588.74
  Q 522.28 585.08 525.26 582.69
  Q 550.51 574.71 573.93 562.12
  Z"
/>
<path fill="#f1c652" d="
  M 447.54 563.09
  Q 477.99 578.26 510.44 586.32
  L 510.93 593.71
  L 511.18 678.12
  L 510.33 690.12
  Q 505.39 688.23 501.10 686.58
  Q 475.98 676.91 454.06 661.27
  C 458.56 662.51 461.49 664.65 466.56 667.79
  A 0.28 0.28 0.0 0 0 466.99 667.57
  L 468.38 646.29
  A 0.86 0.86 0.0 0 0 468.03 645.54
  C 461.58 640.60 461.31 635.55 460.58 627.21
  Q 460.21 623.06 459.83 617.29
  Q 459.79 616.78 458.48 607.43
  Q 457.23 598.51 458.38 589.77
  Q 459.72 594.82 460.12 600.50
  Q 460.79 610.09 462.13 620.93
  Q 463.14 629.10 463.91 639.02
  A 3.46 3.45 -77.3 0 0 465.63 641.75
  L 481.94 651.17
  A 0.63 0.63 0.0 0 0 482.88 650.58
  L 479.12 597.83
  A 0.66 0.65 8.6 0 0 478.70 597.27
  L 460.38 590.28
  C 464.05 589.38 468.13 591.65 471.00 592.50
  A 0.43 0.42 -78.5 0 0 471.54 592.14
  Q 472.39 584.05 471.78 576.13
  A 0.79 0.77 -82.4 0 0 471.28 575.46
  Q 458.36 570.74 447.54 563.09
  Z"
/>
<path fill="#272e43" d="
  M 443.11 583.94
  L 448.90 629.31
  A 0.34 0.34 0.0 0 1 448.35 629.62
  L 434.12 618.50
  A 0.34 0.34 0.0 0 1 434.00 618.29
  L 426.78 577.17
  A 0.34 0.34 0.0 0 1 427.25 576.80
  L 442.91 583.67
  A 0.34 0.34 0.0 0 1 443.11 583.94
  Z"
/>
<path fill="#f1c652" d="
  M 571.42 587.39
  L 585.29 579.37
  A 0.37 0.37 0.0 0 1 585.85 579.71
  L 584.53 619.37
  A 0.37 0.37 0.0 0 1 584.36 619.67
  L 571.16 628.06
  A 0.37 0.37 0.0 0 1 570.59 627.74
  L 571.24 587.70
  A 0.37 0.37 0.0 0 1 571.42 587.39
  Z"
/>
<path fill="#deb349" d="
  M 525.26 582.69
  Q 522.28 585.08 522.33 588.74
  L 511.94 590.49
  A 0.90 0.88 -83.3 0 0 511.26 591.04
  Q 510.82 592.15 510.93 593.71
  L 510.44 586.32
  Q 513.36 586.07 515.44 585.44
  Q 521.54 583.57 525.26 582.69
  Z"
/>
<path fill="#272e43" d="
  M 460.38 590.28
  L 478.70 597.27
  A 0.66 0.65 8.6 0 1 479.12 597.83
  L 482.88 650.58
  A 0.63 0.63 0.0 0 1 481.94 651.17
  L 465.63 641.75
  A 3.46 3.45 -77.3 0 1 463.91 639.02
  Q 463.14 629.10 462.13 620.93
  Q 460.79 610.09 460.12 600.50
  Q 459.72 594.82 458.38 589.77
  Q 460.11 589.88 460.38 590.28
  Z"
/>
<path fill="#f1c652" d="
  M 536.53 649.13
  L 536.53 601.86
  A 0.43 0.43 0.0 0 1 536.82 601.45
  L 550.93 596.45
  A 0.39 0.39 0.0 0 1 551.45 596.80
  Q 551.95 616.70 551.98 636.00
  C 551.98 637.24 553.31 639.10 551.48 640.22
  Q 543.16 645.35 536.96 649.37
  A 0.28 0.28 0.0 0 1 536.53 649.13
  Z"
/>
<path fill="#6f0100" d="
  M 672.03 728.99
  Q 678.35 734.47 686.21 737.54
  Q 696.66 741.62 706.78 742.38
  Q 714.46 742.96 717.13 742.91
  A 1.02 1.00 -20.3 0 1 717.89 743.25
  L 727.40 753.84
  A 0.57 0.57 0.0 0 1 726.98 754.79
  L 296.74 754.79
  A 0.76 0.75 -69.0 0 1 296.18 753.53
  L 304.96 743.76
  A 2.32 2.30 -71.8 0 1 306.45 743.00
  Q 311.41 742.51 316.25 742.50
  Q 319.36 742.49 330.23 739.99
  Q 340.01 746.57 349.60 748.28
  Q 354.79 749.20 360.81 746.87
  Q 362.44 746.24 370.46 740.71
  Q 393.89 724.58 409.33 713.55
  A 1.30 1.30 0.0 0 1 410.81 713.52
  L 434.43 729.07
  A 0.36 0.36 0.0 0 0 434.99 728.75
  Q 434.09 709.64 434.14 693.86
  Q 434.17 683.25 435.63 674.88
  C 436.66 668.98 439.20 663.97 446.12 665.04
  L 456.62 672.12
  A 2.02 2.00 17.1 0 1 457.52 673.79
  Q 457.60 687.11 457.47 699.46
  Q 457.37 708.88 458.74 713.42
  C 461.89 723.83 468.89 731.15 479.01 736.04
  Q 487.23 740.01 495.45 741.32
  C 499.17 741.91 501.63 742.51 504.88 742.56
  Q 516.40 742.77 520.72 742.36
  C 531.75 741.31 543.00 738.03 552.19 731.23
  L 558.70 747.91
  A 0.81 0.81 0.0 0 0 559.37 748.42
  Q 562.50 748.70 563.83 747.80
  Q 583.06 734.75 612.02 714.41
  A 1.94 1.93 -19.3 0 0 612.84 712.72
  Q 612.60 708.17 612.62 702.99
  Q 612.77 647.77 612.75 638.40
  Q 612.74 634.89 613.69 631.48
  A 0.20 0.20 0.0 0 1 614.09 631.53
  L 614.09 712.63
  A 1.05 1.05 0.0 0 0 614.57 713.51
  L 657.40 741.72
  A 0.49 0.47 -56.1 0 0 658.06 741.58
  C 661.80 735.89 665.39 731.13 672.03 728.99
  Z"
/>
<path fill="#f1c652" d="
  M 583.25 638.75
  L 580.25 645.62
  A 1.02 1.02 0.0 0 0 581.59 646.96
  L 589.07 643.75
  Q 558.60 670.86 520.69 686.25
  L 519.38 686.11
  A 0.33 0.33 0.0 0 1 519.28 685.48
  L 525.79 682.47
  A 0.91 0.90 -8.7 0 0 526.32 681.75
  Q 526.85 677.69 523.94 675.68
  A 1.03 1.03 0.0 0 0 522.98 675.57
  Q 520.92 676.42 518.74 675.58
  Q 553.56 661.52 583.25 638.75
  Z"
/>
<path fill="#deb349" d="
  M 520.69 686.25
  L 510.33 690.12
  L 511.18 678.12
  Q 514.64 677.68 518.74 675.58
  Q 520.92 676.42 522.98 675.57
  A 1.03 1.03 0.0 0 1 523.94 675.68
  Q 526.85 677.69 526.32 681.75
  A 0.91 0.90 -8.7 0 1 525.79 682.47
  L 519.28 685.48
  A 0.33 0.33 0.0 0 0 519.38 686.11
  L 520.69 686.25
  Z"
/>
</svg>
